<svg width="76" height="75" viewBox="0 0 76 75" fill="none" xmlns="http://www.w3.org/2000/svg">
<path d="M38 48.498C37.3071 48.498 36.6496 48.1914 36.2042 47.6604L23.7047 32.7571C22.873 31.7653 23.0026 30.2871 23.9945 29.4552C24.9862 28.6235 26.4645 28.7531 27.2964 29.745L37.9969 42.5035L64.3266 10.998C65.1567 10.005 66.6348 9.87245 67.6281 10.7026C68.6212 11.5327 68.7535 13.0107 67.9235 14.0039L39.7985 47.6572C39.3537 48.1895 38.6959 48.4973 38.0022 48.498C38.0013 48.498 38.0007 48.498 38 48.498Z" fill="#FFC700"/>
<path d="M38 67.9688C21.1996 67.9688 7.53125 54.3004 7.53125 37.5C7.53125 20.6996 21.1996 7.03125 38 7.03125C44.3514 7.03125 50.4405 8.96982 55.6087 12.6374C56.6643 13.3865 56.9127 14.8496 56.1638 15.9051C55.4146 16.9607 53.9516 17.2093 52.8958 16.4602C48.5249 13.3583 43.3739 11.7188 38 11.7188C23.7841 11.7188 12.2188 23.2841 12.2188 37.5C12.2188 51.7159 23.7841 63.2812 38 63.2812C52.2159 63.2812 63.7812 51.7159 63.7812 37.5C63.7812 34.7892 63.3627 32.1207 62.5372 29.5685C62.1387 28.3368 62.8143 27.0155 64.0459 26.6171C65.278 26.2191 66.5989 26.8944 66.9972 28.1257C67.9736 31.1448 68.4688 34.2987 68.4688 37.5C68.4688 54.3004 54.8004 67.9688 38 67.9688Z" fill="#FFC700"/>
</svg>
