<svg width="50" height="50" viewBox="0 0 50 50" fill="none" xmlns="http://www.w3.org/2000/svg">
<path d="M45.3125 49.9031H32.2906C29.7063 49.9031 27.6031 47.8 27.6031 45.2156V32.1937C27.6031 29.6094 29.7063 27.5063 32.2906 27.5063H45.3125C47.8969 27.5063 50 29.6094 50 32.1937V45.2156C50 47.8 47.8969 49.9031 45.3125 49.9031ZM32.2906 30.6313C31.4281 30.6313 30.7281 31.3312 30.7281 32.1937V45.2156C30.7281 46.0781 31.4281 46.7781 32.2906 46.7781H45.3125C46.175 46.7781 46.875 46.0781 46.875 45.2156V32.1937C46.875 31.3312 46.175 30.6313 45.3125 30.6313H32.2906ZM17.7078 49.9031H4.6875C2.10312 49.9031 0 47.8 0 45.2156V32.1937C0 29.6094 2.10312 27.5063 4.6875 27.5063H17.7078C20.2922 27.5063 22.3953 29.6094 22.3953 32.1937V45.2156C22.3953 47.8 20.2938 49.9031 17.7078 49.9031ZM4.6875 30.6313C3.82656 30.6313 3.125 31.3312 3.125 32.1937V45.2156C3.125 46.0781 3.82656 46.7781 4.6875 46.7781H17.7078C18.5688 46.7781 19.2703 46.0781 19.2703 45.2156V32.1937C19.2703 31.3312 18.5688 30.6313 17.7078 30.6313H4.6875ZM45.3125 22.3969H32.2906C29.7063 22.3969 27.6031 20.2937 27.6031 17.7094V4.6875C27.6031 2.10312 29.7063 0 32.2906 0H45.3125C47.8969 0 50 2.10312 50 4.6875V17.7094C50 20.2937 47.8969 22.3969 45.3125 22.3969ZM32.2906 3.125C31.4281 3.125 30.7281 3.825 30.7281 4.6875V17.7094C30.7281 18.5719 31.4281 19.2719 32.2906 19.2719H45.3125C46.175 19.2719 46.875 18.5719 46.875 17.7094V4.6875C46.875 3.825 46.175 3.125 45.3125 3.125H32.2906ZM17.7078 22.3969H4.6875C2.10312 22.3969 0 20.2937 0 17.7094V4.6875C0 2.10312 2.10312 0 4.6875 0H17.7078C20.2922 0 22.3953 2.10312 22.3953 4.6875V17.7094C22.3953 20.2937 20.2938 22.3969 17.7078 22.3969ZM4.6875 3.125C3.82656 3.125 3.125 3.825 3.125 4.6875V17.7094C3.125 18.5719 3.82656 19.2719 4.6875 19.2719H17.7078C18.5688 19.2719 19.2703 18.5719 19.2703 17.7094V4.6875C19.2703 3.825 18.5688 3.125 17.7078 3.125H4.6875Z" fill="url(#paint0_linear_119_575)"/>
<defs>
<linearGradient id="paint0_linear_119_575" x1="4.49783" y1="5.26927" x2="52.6454" y2="13.3588" gradientUnits="userSpaceOnUse">
<stop offset="0.117873" stop-color="#1D1E23"/>
<stop offset="0.640995" stop-color="#FE0A02"/>
<stop offset="1" stop-color="#F1C622"/>
</linearGradient>
</defs>
</svg>
