<svg width="50" height="50" viewBox="0 0 50 50" fill="none" xmlns="http://www.w3.org/2000/svg">
<g clip-path="url(#clip0_206_160)">
<path d="M25 50C38.8071 50 50 38.8071 50 25C50 11.1929 38.8071 0 25 0C11.1929 0 0 11.1929 0 25C0 38.8071 11.1929 50 25 50Z" fill="#AA0B0D"/>
<path d="M37.0227 12.9771C34.4217 10.3501 30.9675 8.73905 27.2833 8.43454C23.599 8.13003 19.9272 9.15211 16.9301 11.3164C13.9331 13.4807 11.8081 16.6448 10.9385 20.2379C10.0688 23.8309 10.5118 27.6165 12.1875 30.9118L10.5426 38.8975C10.5255 38.977 10.5251 39.0592 10.5412 39.1389C10.5573 39.2185 10.5897 39.294 10.6364 39.3606C10.7047 39.4617 10.8022 39.5395 10.9159 39.5836C11.0296 39.6278 11.1541 39.6362 11.2727 39.6078L19.0994 37.7527C22.3854 39.3859 26.1443 39.8004 29.7072 38.9224C33.27 38.0443 36.4059 35.9308 38.5567 32.9577C40.7075 29.9846 41.7338 26.3449 41.4529 22.6862C41.172 19.0274 39.6022 15.587 37.0227 12.9771ZM34.5824 32.4544C32.7827 34.249 30.4653 35.4336 27.9567 35.8413C25.4481 36.2491 22.8748 35.8594 20.5994 34.7271L19.5085 34.1873L14.7102 35.3237L14.7244 35.264L15.7188 30.4345L15.1847 29.3805C14.022 27.0972 13.6119 24.5045 14.013 21.9738C14.4141 19.4431 15.6059 17.1043 17.4176 15.2924C19.6941 13.0167 22.7811 11.7383 26 11.7383C29.2189 11.7383 32.306 13.0167 34.5824 15.2924C34.6018 15.3147 34.6227 15.3355 34.6449 15.3549C36.8931 17.6365 38.1482 20.7144 38.1365 23.9175C38.1248 27.1207 36.8472 30.1893 34.5824 32.4544Z" fill="white"/>
<path d="M34.1564 28.9116C33.5683 29.8377 32.6394 30.9712 31.4717 31.2525C29.4263 31.7468 26.2871 31.2695 22.3808 27.6275L22.3325 27.5849C18.8979 24.4002 18.0058 21.7496 18.2217 19.6474C18.3411 18.4542 19.3354 17.3746 20.1735 16.6701C20.3059 16.557 20.4631 16.4765 20.6322 16.435C20.8014 16.3935 20.978 16.3921 21.1477 16.4311C21.3175 16.47 21.4759 16.5481 21.6101 16.6592C21.7443 16.7702 21.8506 16.9111 21.9206 17.0706L23.1848 19.9116C23.267 20.0958 23.2974 20.2989 23.2729 20.4991C23.2484 20.6992 23.1698 20.889 23.0456 21.0479L22.4064 21.8775C22.2693 22.0488 22.1865 22.2572 22.1688 22.4759C22.151 22.6946 22.1992 22.9136 22.307 23.1047C22.6649 23.7326 23.5229 24.6559 24.4746 25.511C25.5428 26.4769 26.7274 27.3604 27.4774 27.6616C27.6781 27.7435 27.8988 27.7636 28.1109 27.719C28.3231 27.6744 28.517 27.5674 28.6678 27.4116L29.4092 26.6644C29.5523 26.5233 29.7302 26.4227 29.9249 26.3728C30.1195 26.3229 30.3239 26.3255 30.5172 26.3803L33.52 27.2326C33.6857 27.2834 33.8375 27.3714 33.9639 27.4899C34.0903 27.6084 34.188 27.7542 34.2494 27.9162C34.3108 28.0782 34.3343 28.2522 34.3182 28.4247C34.3021 28.5972 34.2468 28.7637 34.1564 28.9116Z" fill="white"/>
</g>
<defs>
<clipPath id="clip0_206_160">
<rect width="50" height="50" fill="white"/>
</clipPath>
</defs>
</svg>
