<svg width="50" height="50" viewBox="0 0 50 50" fill="none" xmlns="http://www.w3.org/2000/svg">
<path fill-rule="evenodd" clip-rule="evenodd" d="M25 1.5625C37.9441 1.5625 48.4375 12.0558 48.4375 25C48.4375 37.9442 37.9441 48.4375 25 48.4375C12.0559 48.4375 1.5625 37.9441 1.5625 25C1.5625 12.0559 12.0559 1.5625 25 1.5625ZM20.0469 23.4455L11.7779 16.9789C11.7101 17.1901 11.673 17.4154 11.673 17.6486V31.9014L20.0469 23.4455ZM28.5422 24.286L26.6383 25.7622C26.1001 26.1793 25.4668 26.3881 24.8332 26.3881C24.1997 26.3881 23.5669 26.1793 23.0287 25.7622L21.1249 24.286L11.9997 33.5004C12.3864 34.1263 13.0793 34.5446 13.8665 34.5446H36.1333C36.8348 34.5446 37.4608 34.2125 37.863 33.6978L28.5422 24.286ZM38.1528 16.7937L29.6207 23.4466L38.327 32.2375V17.6487C38.327 17.3457 38.2652 17.0564 38.1528 16.7937ZM13.8666 15.4554C13.3835 15.4554 12.9358 15.6131 12.5731 15.8791C16.3329 18.8194 20.0866 21.7641 23.8584 24.6882C24.1495 24.914 24.4914 25.027 24.8333 25.027C25.1753 25.027 25.5178 24.9141 25.8088 24.6882C29.6328 21.7233 33.4458 18.7443 37.2612 15.7691C36.9318 15.5699 36.5456 15.4554 36.1334 15.4554H13.8666Z" fill="#AA0B0D"/>
</svg>
