<svg width="50" height="50" viewBox="0 0 50 50" fill="none" xmlns="http://www.w3.org/2000/svg">
<g clip-path="url(#clip0_32_187)">
<path d="M25 50C38.8071 50 50 38.8071 50 25C50 11.1929 38.8071 0 25 0C11.1929 0 0 11.1929 0 25C0 38.8071 11.1929 50 25 50Z" fill="#AA0B0D"/>
<path d="M35.6667 29.4107C33.3653 29.4107 31.1707 28.9093 29.1467 27.92C28.8293 27.768 28.4613 27.744 28.1253 27.8587C27.7893 27.976 27.5147 28.2213 27.36 28.5387L26.4 30.5253C23.52 28.872 21.1307 26.48 19.4747 23.6L21.464 22.64C21.784 22.4853 22.0267 22.2107 22.144 21.8747C22.2587 21.5387 22.2373 21.1707 22.0827 20.8533C21.0907 18.832 20.5893 16.6373 20.5893 14.3333C20.5893 13.5973 19.992 13 19.256 13H14.3333C13.5973 13 13 13.5973 13 14.3333C13 26.832 23.168 37 35.6667 37C36.4027 37 37 36.4027 37 35.6667V30.744C37 30.008 36.4027 29.4107 35.6667 29.4107Z" fill="white"/>
</g>
<defs>
<clipPath id="clip0_32_187">
<rect width="50" height="50" fill="white"/>
</clipPath>
</defs>
</svg>
