<svg width="50" height="50" viewBox="0 0 50 50" fill="none" xmlns="http://www.w3.org/2000/svg">
<g clip-path="url(#clip0_206_157)">
<path d="M25 50C38.8071 50 50 38.8071 50 25C50 11.1929 38.8071 0 25 0C11.1929 0 0 11.1929 0 25C0 38.8071 11.1929 50 25 50Z" fill="#AA0B0D"/>
<path d="M12.2656 23.4075L36.3697 14.1137C37.4885 13.7096 38.4656 14.3867 38.1031 16.0783L38.1052 16.0762L34.001 35.4117C33.6968 36.7825 32.8822 37.1158 31.7427 36.47L25.4927 31.8637L22.4781 34.7679C22.1447 35.1012 21.8635 35.3825 21.2177 35.3825L21.6614 29.0221L33.2447 18.5575C33.7489 18.1137 33.1322 17.8637 32.4677 18.3054L18.1531 27.3179L11.9822 25.3929C10.6427 24.9679 10.6135 24.0533 12.2656 23.4075Z" fill="white"/>
</g>
<defs>
<clipPath id="clip0_206_157">
<rect width="50" height="50" fill="white"/>
</clipPath>
</defs>
</svg>
