<svg width="183" height="59" viewBox="0 0 183 59" fill="none" xmlns="http://www.w3.org/2000/svg">
<g filter="url(#filter0_d_119_38)">
<path d="M65.3499 25.2381L64.3403 21.8393H56.4997L55.4902 25.2381H48.9619L56.7353 1.6825H64.0711L71.8445 25.2381H65.3499ZM58.0476 16.6571H62.7924L60.4032 8.64822L58.0476 16.6571Z" fill="url(#paint0_linear_119_38)"/>
<path d="M81.4434 25.7428C78.9532 25.7428 76.8893 25.2156 75.2516 24.1612C73.6139 23.1069 72.4698 21.6823 71.8192 19.8876L76.9678 16.8927C77.8427 18.979 79.3907 20.0222 81.6116 20.0222C83.4512 20.0222 84.371 19.495 84.371 18.4406C84.371 17.7452 83.8438 17.1843 82.7894 16.7581C82.3407 16.5786 81.3536 16.2757 79.8281 15.8495C77.6745 15.2213 75.9695 14.3464 74.7132 13.2247C73.4569 12.0806 72.8288 10.499 72.8288 8.47996C72.8288 6.30388 73.6027 4.54282 75.1507 3.19678C76.721 1.85075 78.6728 1.17773 81.0059 1.17773C82.9801 1.17773 84.7299 1.63763 86.2554 2.55742C87.7809 3.47721 88.9475 4.81202 89.7551 6.56187L84.7075 9.52314C83.9672 7.7733 82.7445 6.89837 81.0396 6.89837C80.3217 6.89837 79.772 7.0442 79.3907 7.33584C79.0317 7.62748 78.8523 7.99763 78.8523 8.44631C78.8523 8.96229 79.1215 9.39975 79.6599 9.75869C80.2207 10.1176 81.2976 10.5327 82.8904 11.0038C84.0345 11.3403 84.9543 11.6544 85.6497 11.946C86.3452 12.2376 87.1079 12.6639 87.938 13.2247C88.768 13.7631 89.385 14.4698 89.7888 15.3447C90.1926 16.1972 90.3945 17.2067 90.3945 18.3733C90.3945 20.684 89.5757 22.4899 87.938 23.7911C86.3003 25.0923 84.1354 25.7428 81.4434 25.7428Z" fill="url(#paint1_linear_119_38)"/>
<path d="M101.737 1.6825C104.115 1.6825 106.112 2.45647 107.727 4.0044C109.343 5.55234 110.15 7.52652 110.15 9.92695C110.15 12.3274 109.343 14.3016 107.727 15.8495C106.112 17.3974 104.115 18.1714 101.737 18.1714H98.6079V25.2381H92.5844V1.6825H101.737ZM101.737 12.4508C102.41 12.4508 102.971 12.2152 103.42 11.7441C103.891 11.273 104.127 10.6673 104.127 9.92695C104.127 9.18663 103.891 8.59213 103.42 8.14345C102.971 7.67234 102.41 7.43679 101.737 7.43679H98.6079V12.4508H101.737Z" fill="url(#paint2_linear_119_38)"/>
</g>
<g filter="url(#filter1_d_119_38)">
<path d="M92.7079 54.1779H85.9777L79.2139 43.6452V54.1779H73.1904V30.6223H79.2139V40.5157L85.6412 30.6223H92.3714L84.9009 42.0636L92.7079 54.1779Z" fill="url(#paint3_linear_119_38)"/>
<path d="M106.702 54.1779L102.597 46.5728H100.443V54.1779H94.4194V30.6223H103.842C106.242 30.6223 108.25 31.3963 109.865 32.9442C111.503 34.4697 112.322 36.4103 112.322 38.7658C112.322 40.1791 111.963 41.4803 111.245 42.6693C110.527 43.8359 109.551 44.7669 108.317 45.4623L113.163 54.1779H106.702ZM100.443 36.1747V41.4579H103.774C104.515 41.4803 105.12 41.2448 105.591 40.7512C106.063 40.2577 106.298 39.6183 106.298 38.8331C106.298 38.0479 106.063 37.4086 105.591 36.915C105.12 36.4215 104.515 36.1747 103.774 36.1747H100.443Z" fill="url(#paint4_linear_119_38)"/>
<path d="M121.31 48.5246H130.43V54.1779H115.287V30.6223H130.261V36.242H121.31V39.5061H129.42V45.0585H121.31V48.5246Z" fill="url(#paint5_linear_119_38)"/>
<path d="M142.886 30.6223C146.139 30.6223 148.853 31.7552 151.029 34.021C153.228 36.2644 154.327 39.0575 154.327 42.4001C154.327 45.7428 153.228 48.547 151.029 50.8128C148.853 53.0562 146.139 54.1779 142.886 54.1779H133.295V30.6223H142.886ZM142.886 48.3563C144.523 48.3563 145.858 47.8179 146.89 46.7411C147.922 45.6418 148.438 44.1948 148.438 42.4001C148.438 40.6054 147.922 39.1696 146.89 38.0928C145.858 36.9935 144.523 36.4439 142.886 36.4439H139.487V48.3563H142.886Z" fill="url(#paint6_linear_119_38)"/>
<path d="M157.12 30.6223H163.144V54.1779H157.12V30.6223Z" fill="url(#paint7_linear_119_38)"/>
<path d="M183 30.6223V36.4439H177.178V54.1779H171.155V36.4439H165.333V30.6223H183Z" fill="url(#paint8_linear_119_38)"/>
</g>
<g clip-path="url(#clip0_119_38)">
<g filter="url(#filter2_d_119_38)">
<path d="M50.7314 50.8478L52.6552 54.1777H62.5906L55.1316 41.2705L50.7241 48.8955C50.385 49.4996 50.385 50.2437 50.7314 50.8478Z" fill="#FE0803"/>
<path d="M34.8404 50.8331L36.7715 54.1778H47.8936L45.992 50.8847C45.6308 50.2585 45.6308 49.4849 45.992 48.8587L49.095 43.4807C51.3577 39.5614 51.3577 34.7433 49.095 30.824L47.1786 27.5088L34.8404 48.8808C34.494 49.4849 34.494 50.229 34.8404 50.8331Z" fill="#F16522"/>
<path d="M18.9425 50.8331L20.8736 54.1778H32.0178L30.1088 50.87C29.7477 50.2438 29.7477 49.4702 30.1088 48.844L41.1499 29.7263C43.4126 25.807 43.4126 20.9889 41.1499 17.0696L39.2336 13.7544L18.9499 48.8882C18.5961 49.4923 18.5961 50.2364 18.9425 50.8331Z" fill="#FFC700"/>
<path d="M0 54.1778H16.1193L15.3823 52.8959C13.7313 49.9565 13.864 49.5955 15.3823 46.8328L33.2116 15.9719C35.4744 12.0526 35.4744 7.23451 33.2116 3.31521L31.2953 0L15.6476 27.0889L0 54.1778Z" fill="#FFC700"/>
</g>
<path d="M50.7313 50.8479L52.6551 54.1778H62.5905L55.1315 41.2706L50.724 48.8956C50.3849 49.4997 50.3849 50.2438 50.7313 50.8479Z" fill="url(#paint9_linear_119_38)"/>
<path d="M34.8405 50.8331L36.7716 54.1778H47.8937L45.9921 50.8847C45.6309 50.2585 45.6309 49.485 45.9921 48.8588L49.0951 43.4808C51.3578 39.5614 51.3578 34.7434 49.0951 30.824L47.1787 27.5088L34.8405 48.8809C34.4941 49.485 34.4941 50.229 34.8405 50.8331Z" fill="url(#paint10_linear_119_38)"/>
<path d="M18.9423 50.8331L20.8733 54.1778H32.0176L30.1086 50.87C29.7475 50.2438 29.7475 49.4702 30.1086 48.844L41.1497 29.7263C43.4124 25.807 43.4124 20.9889 41.1497 17.0696L39.2333 13.7544L18.9496 48.8882C18.5958 49.4923 18.5958 50.2364 18.9423 50.8331Z" fill="url(#paint11_linear_119_38)"/>
<path d="M0 54.1778H16.1193L15.3823 52.8959C13.7313 49.9565 13.864 49.5955 15.3823 46.8328L33.2116 15.9719C35.4744 12.0526 35.4744 7.23451 33.2116 3.31521L31.2953 0L0 54.1778Z" fill="url(#paint12_linear_119_38)"/>
</g>
<defs>
<filter id="filter0_d_119_38" x="44.9619" y="1.17773" width="65.1885" height="28.5652" filterUnits="userSpaceOnUse" color-interpolation-filters="sRGB">
<feFlood flood-opacity="0" result="BackgroundImageFix"/>
<feColorMatrix in="SourceAlpha" type="matrix" values="0 0 0 0 0 0 0 0 0 0 0 0 0 0 0 0 0 0 127 0" result="hardAlpha"/>
<feOffset dx="-2" dy="2"/>
<feGaussianBlur stdDeviation="1"/>
<feComposite in2="hardAlpha" operator="out"/>
<feColorMatrix type="matrix" values="0 0 0 0 0 0 0 0 0 0 0 0 0 0 0 0 0 0 0.3 0"/>
<feBlend mode="normal" in2="BackgroundImageFix" result="effect1_dropShadow_119_38"/>
<feBlend mode="normal" in="SourceGraphic" in2="effect1_dropShadow_119_38" result="shape"/>
</filter>
<filter id="filter1_d_119_38" x="69.1904" y="30.6223" width="113.81" height="27.5557" filterUnits="userSpaceOnUse" color-interpolation-filters="sRGB">
<feFlood flood-opacity="0" result="BackgroundImageFix"/>
<feColorMatrix in="SourceAlpha" type="matrix" values="0 0 0 0 0 0 0 0 0 0 0 0 0 0 0 0 0 0 127 0" result="hardAlpha"/>
<feOffset dx="-2" dy="2"/>
<feGaussianBlur stdDeviation="1"/>
<feComposite in2="hardAlpha" operator="out"/>
<feColorMatrix type="matrix" values="0 0 0 0 0 0 0 0 0 0 0 0 0 0 0 0 0 0 0.3 0"/>
<feBlend mode="normal" in2="BackgroundImageFix" result="effect1_dropShadow_119_38"/>
<feBlend mode="normal" in="SourceGraphic" in2="effect1_dropShadow_119_38" result="shape"/>
</filter>
<filter id="filter2_d_119_38" x="-1" y="-3" width="68.5908" height="60.1777" filterUnits="userSpaceOnUse" color-interpolation-filters="sRGB">
<feFlood flood-opacity="0" result="BackgroundImageFix"/>
<feColorMatrix in="SourceAlpha" type="matrix" values="0 0 0 0 0 0 0 0 0 0 0 0 0 0 0 0 0 0 127 0" result="hardAlpha"/>
<feOffset dx="2"/>
<feGaussianBlur stdDeviation="1.5"/>
<feComposite in2="hardAlpha" operator="out"/>
<feColorMatrix type="matrix" values="0 0 0 0 0 0 0 0 0 0 0 0 0 0 0 0 0 0 0.45 0"/>
<feBlend mode="normal" in2="BackgroundImageFix" result="effect1_dropShadow_119_38"/>
<feBlend mode="normal" in="SourceGraphic" in2="effect1_dropShadow_119_38" result="shape"/>
</filter>
<linearGradient id="paint0_linear_119_38" x1="50.8127" y1="13.4603" x2="110.711" y2="13.4603" gradientUnits="userSpaceOnUse">
<stop stop-color="#1D1E23"/>
<stop offset="1" stop-color="#FF0000"/>
</linearGradient>
<linearGradient id="paint1_linear_119_38" x1="50.8127" y1="13.4603" x2="110.711" y2="13.4603" gradientUnits="userSpaceOnUse">
<stop stop-color="#1D1E23"/>
<stop offset="1" stop-color="#FF0000"/>
</linearGradient>
<linearGradient id="paint2_linear_119_38" x1="50.8127" y1="13.4603" x2="110.711" y2="13.4603" gradientUnits="userSpaceOnUse">
<stop stop-color="#1D1E23"/>
<stop offset="1" stop-color="#FF0000"/>
</linearGradient>
<linearGradient id="paint3_linear_119_38" x1="71.3396" y1="42.4001" x2="154.794" y2="42.4001" gradientUnits="userSpaceOnUse">
<stop stop-color="#FF0000"/>
<stop offset="1" stop-color="#F1C622"/>
</linearGradient>
<linearGradient id="paint4_linear_119_38" x1="71.3396" y1="42.4001" x2="154.794" y2="42.4001" gradientUnits="userSpaceOnUse">
<stop stop-color="#FF0000"/>
<stop offset="1" stop-color="#F1C622"/>
</linearGradient>
<linearGradient id="paint5_linear_119_38" x1="71.3396" y1="42.4001" x2="154.794" y2="42.4001" gradientUnits="userSpaceOnUse">
<stop stop-color="#FF0000"/>
<stop offset="1" stop-color="#F1C622"/>
</linearGradient>
<linearGradient id="paint6_linear_119_38" x1="71.3396" y1="42.4001" x2="154.794" y2="42.4001" gradientUnits="userSpaceOnUse">
<stop stop-color="#FF0000"/>
<stop offset="1" stop-color="#F1C622"/>
</linearGradient>
<linearGradient id="paint7_linear_119_38" x1="71.3396" y1="42.4001" x2="154.794" y2="42.4001" gradientUnits="userSpaceOnUse">
<stop stop-color="#FF0000"/>
<stop offset="1" stop-color="#F1C622"/>
</linearGradient>
<linearGradient id="paint8_linear_119_38" x1="71.3396" y1="42.4001" x2="154.794" y2="42.4001" gradientUnits="userSpaceOnUse">
<stop stop-color="#FF0000"/>
<stop offset="1" stop-color="#F1C622"/>
</linearGradient>
<linearGradient id="paint9_linear_119_38" x1="5.63043" y1="5.72064" x2="65.3617" y2="17.2922" gradientUnits="userSpaceOnUse">
<stop offset="0.117873" stop-color="#1D1E23"/>
<stop offset="0.640995" stop-color="#FE0A02"/>
<stop offset="1" stop-color="#F1C622"/>
</linearGradient>
<linearGradient id="paint10_linear_119_38" x1="5.63043" y1="5.72064" x2="65.3617" y2="17.2922" gradientUnits="userSpaceOnUse">
<stop offset="0.117873" stop-color="#1D1E23"/>
<stop offset="0.640995" stop-color="#FE0A02"/>
<stop offset="1" stop-color="#F1C622"/>
</linearGradient>
<linearGradient id="paint11_linear_119_38" x1="5.63043" y1="5.72064" x2="65.3617" y2="17.2922" gradientUnits="userSpaceOnUse">
<stop offset="0.117873" stop-color="#1D1E23"/>
<stop offset="0.640995" stop-color="#FE0A02"/>
<stop offset="1" stop-color="#F1C622"/>
</linearGradient>
<linearGradient id="paint12_linear_119_38" x1="5.63043" y1="5.72064" x2="65.3617" y2="17.2922" gradientUnits="userSpaceOnUse">
<stop offset="0.117873" stop-color="#1D1E23"/>
<stop offset="0.640995" stop-color="#FE0A02"/>
<stop offset="1" stop-color="#F1C622"/>
</linearGradient>
<clipPath id="clip0_119_38">
<rect width="62.5905" height="54.1778" fill="white"/>
</clipPath>
</defs>
</svg>
