<svg width="121" height="122" fill="none" xmlns="http://www.w3.org/2000/svg"><g filter="url(#filter0_d_3_1514)"><rect x="5" width="115" height="115.5" rx="35" fill="url(#paint0_linear_3_1514)"/></g><path d="M84.896 66.904c-4.886 0-9.545-1.069-13.841-3.178a2.866 2.866 0 00-2.169-.131 2.86 2.86 0 00-1.624 1.45l-2.038 4.236a39.947 39.947 0 01-14.702-14.766l4.223-2.047a2.844 2.844 0 001.444-1.632 2.876 2.876 0 00-.13-2.177c-2.106-4.31-3.17-8.99-3.17-13.902a2.838 2.838 0 00-2.831-2.842h-10.45a2.838 2.838 0 00-2.831 2.842c0 26.649 21.585 48.328 48.119 48.328a2.838 2.838 0 002.83-2.842V69.747a2.838 2.838 0 00-2.83-2.843z" fill="#1D1E23"/><defs><linearGradient id="paint0_linear_3_1514" x1="-18.5" y1="94" x2="50.505" y2="171.985" gradientUnits="userSpaceOnUse"><stop offset=".078" stop-color="#FFC700"/><stop offset=".497" stop-color="#FFF59C"/><stop offset="1" stop-color="#FFC700"/></linearGradient><filter id="filter0_d_3_1514" x="0" y="0" width="121" height="121.5" filterUnits="userSpaceOnUse" color-interpolation-filters="sRGB"><feFlood flood-opacity="0" result="BackgroundImageFix"/><feColorMatrix in="SourceAlpha" values="0 0 0 0 0 0 0 0 0 0 0 0 0 0 0 0 0 0 127 0" result="hardAlpha"/><feOffset dx="-2" dy="3"/><feGaussianBlur stdDeviation="1.5"/><feComposite in2="hardAlpha" operator="out"/><feColorMatrix values="0 0 0 0 0.58449 0 0 0 0 0.46995 0 0 0 0 0.0638531 0 0 0 0.45 0"/><feBlend in2="BackgroundImageFix" result="effect1_dropShadow_3_1514"/><feBlend in="SourceGraphic" in2="effect1_dropShadow_3_1514" result="shape"/></filter></defs></svg>