<svg width="50" height="50" fill="none" xmlns="http://www.w3.org/2000/svg"><path d="M45.313 49.903H32.29a4.693 4.693 0 01-4.688-4.687V32.194a4.693 4.693 0 014.688-4.688h13.022A4.693 4.693 0 0150 32.194v13.022a4.693 4.693 0 01-4.688 4.687zM32.29 30.631c-.863 0-1.563.7-1.563 1.563v13.022c0 .862.7 1.562 1.563 1.562h13.022c.862 0 1.562-.7 1.562-1.562V32.194c0-.863-.7-1.563-1.563-1.563h-13.02zM17.708 49.903H4.688A4.693 4.693 0 010 45.216V32.194a4.693 4.693 0 014.688-4.688h13.02a4.693 4.693 0 014.687 4.688v13.022a4.692 4.692 0 01-4.687 4.687zM4.688 30.631c-.861 0-1.563.7-1.563 1.563v13.022c0 .862.702 1.562 1.563 1.562h13.02c.86 0 1.562-.7 1.562-1.562V32.194c0-.863-.701-1.563-1.562-1.563H4.688zm40.624-8.234H32.291a4.693 4.693 0 01-4.688-4.688V4.688A4.693 4.693 0 0132.291 0h13.022A4.693 4.693 0 0150 4.688v13.021a4.693 4.693 0 01-4.688 4.688zM32.291 3.125c-.863 0-1.563.7-1.563 1.563v13.021c0 .863.7 1.563 1.563 1.563h13.022c.862 0 1.562-.7 1.562-1.563V4.688c0-.863-.7-1.563-1.563-1.563H32.291zM17.708 22.397H4.688A4.693 4.693 0 010 17.709V4.688A4.693 4.693 0 014.688 0h13.02a4.693 4.693 0 014.687 4.688v13.021a4.692 4.692 0 01-4.687 4.688zM4.688 3.125c-.861 0-1.563.7-1.563 1.563v13.021c0 .863.702 1.563 1.563 1.563h13.02c.86 0 1.562-.7 1.562-1.563V4.688c0-.863-.701-1.563-1.562-1.563H4.688z" fill="url(#paint0_linear_119_575)"/><defs><linearGradient id="paint0_linear_119_575" x1="4.498" y1="5.269" x2="52.645" y2="13.359" gradientUnits="userSpaceOnUse"><stop offset=".118" stop-color="#1D1E23"/><stop offset=".641" stop-color="#FE0A02"/><stop offset="1" stop-color="#F1C622"/></linearGradient></defs></svg>