<svg width="50" height="50" fill="none" xmlns="http://www.w3.org/2000/svg"><g clip-path="url(#clip0_206_160)"><path d="M25 50c13.807 0 25-11.193 25-25S38.807 0 25 0 0 11.193 0 25s11.193 25 25 25z" fill="#AA0B0D"/><path d="M37.023 12.977a15.503 15.503 0 00-24.836 17.935l-1.644 7.986a.591.591 0 00.093.463.598.598 0 00.637.247l7.826-1.855a15.5 15.5 0 0017.924-24.776zm-2.44 19.477a12.142 12.142 0 01-13.984 2.273l-1.09-.54-4.799 1.137.014-.06.995-4.83-.534-1.053a12.136 12.136 0 1119.397 3.073z" fill="#fff"/><path d="M34.156 28.912c-.588.926-1.517 2.06-2.684 2.34-2.046.495-5.185.018-9.091-3.624l-.049-.043c-3.434-3.185-4.326-5.835-4.11-7.938.12-1.193 1.113-2.272 1.951-2.977a1.116 1.116 0 011.748.4l1.264 2.842a1.11 1.11 0 01-.14 1.136l-.639.83a1.1 1.1 0 00-.099 1.227c.358.628 1.216 1.55 2.168 2.406 1.068.966 2.252 1.85 3.002 2.15a1.086 1.086 0 001.19-.25l.742-.747a1.136 1.136 0 011.108-.284l3.003.853a1.136 1.136 0 01.636 1.679z" fill="#fff"/></g><defs><clipPath id="clip0_206_160"><path fill="#fff" d="M0 0h50v50H0z"/></clipPath></defs></svg>