<svg width="50" height="50" fill="none" xmlns="http://www.w3.org/2000/svg"><path fill-rule="evenodd" clip-rule="evenodd" d="M25 1.563c12.944 0 23.438 10.493 23.438 23.437S37.944 48.438 25 48.438C12.056 48.438 1.562 37.944 1.562 25 1.563 12.056 12.056 1.562 25 1.562zm-4.953 21.883l-8.27-6.467a2.189 2.189 0 00-.104.67V31.9l8.374-8.456zm8.495.84l-1.904 1.476a2.94 2.94 0 01-1.805.626 2.938 2.938 0 01-1.804-.626l-1.904-1.476L12 33.5a2.195 2.195 0 001.867 1.045h22.266c.702 0 1.328-.333 1.73-.847l-9.32-9.412zm9.61-7.492l-8.531 6.653 8.706 8.79V17.65a2.17 2.17 0 00-.174-.855zm-24.285-1.339c-.484 0-.931.158-1.294.424 3.76 2.94 7.514 5.885 11.285 8.81.291.225.633.338.975.338.342 0 .685-.113.976-.339 3.824-2.965 7.637-5.944 11.452-8.919-.33-.2-.715-.314-1.128-.314H13.867z" fill="#AA0B0D"/></svg>