<svg width="50" height="50" fill="none" xmlns="http://www.w3.org/2000/svg"><g clip-path="url(#clip0_206_157)"><path d="M25 50c13.807 0 25-11.193 25-25S38.807 0 25 0 0 11.193 0 25s11.193 25 25 25z" fill="#AA0B0D"/><path d="M12.266 23.407l24.104-9.293c1.119-.404 2.096.273 1.733 1.964l.002-.002-4.104 19.336c-.304 1.37-1.119 1.704-2.258 1.058l-6.25-4.606-3.015 2.904c-.333.333-.615.614-1.26.614l.443-6.36 11.584-10.464c.504-.444-.113-.694-.777-.253l-14.315 9.013-6.17-1.925c-1.34-.425-1.37-1.34.283-1.986z" fill="#fff"/></g><defs><clipPath id="clip0_206_157"><path fill="#fff" d="M0 0h50v50H0z"/></clipPath></defs></svg>