<svg width="50" height="50" fill="none" xmlns="http://www.w3.org/2000/svg"><g clip-path="url(#clip0_32_187)"><path d="M25 50c13.807 0 25-11.193 25-25S38.807 0 25 0 0 11.193 0 25s11.193 25 25 25z" fill="#AA0B0D"/><path d="M35.667 29.41c-2.302 0-4.496-.5-6.52-1.49a1.356 1.356 0 00-1.022-.061c-.336.117-.61.362-.765.68l-.96 1.986a18.776 18.776 0 01-6.925-6.925l1.989-.96a1.336 1.336 0 00.619-1.787 14.67 14.67 0 01-1.494-6.52c0-.736-.597-1.333-1.333-1.333h-4.923c-.736 0-1.333.597-1.333 1.333C13 26.832 23.168 37 35.667 37c.736 0 1.333-.597 1.333-1.333v-4.923c0-.736-.597-1.333-1.333-1.333z" fill="#fff"/></g><defs><clipPath id="clip0_32_187"><path fill="#fff" d="M0 0h50v50H0z"/></clipPath></defs></svg>