<svg width="183" height="59" fill="none" xmlns="http://www.w3.org/2000/svg"><g filter="url(#filter0_d_67_2)"><path d="M65.35 25.238l-1.01-3.399H56.5l-1.01 3.4h-6.528l7.773-23.556h7.336l7.773 23.555H65.35zm-7.302-8.58h4.744l-2.389-8.01-2.355 8.01z" fill="url(#paint0_linear_67_2)"/><path d="M81.443 25.743c-2.49 0-4.554-.527-6.191-1.582-1.638-1.054-2.782-2.479-3.433-4.273l5.149-2.995c.875 2.086 2.423 3.13 4.644 3.13 1.84 0 2.759-.528 2.759-1.582 0-.696-.527-1.257-1.582-1.683-.448-.18-1.435-.482-2.96-.908-2.154-.629-3.86-1.504-5.116-2.625-1.256-1.144-1.884-2.726-1.884-4.745 0-2.176.774-3.937 2.322-5.283 1.57-1.346 3.522-2.02 5.855-2.02 1.974 0 3.724.46 5.25 1.38 1.525.92 2.692 2.255 3.5 4.005l-5.049 2.961c-.74-1.75-1.962-2.625-3.667-2.625-.718 0-1.268.146-1.65.438a1.37 1.37 0 00-.538 1.11c0 .516.27.954.808 1.313.56.359 1.638.774 3.23 1.245 1.144.336 2.064.65 2.76.942.695.292 1.458.718 2.288 1.279a4.969 4.969 0 011.85 2.12c.405.852.606 1.862.606 3.028 0 2.311-.818 4.117-2.456 5.418-1.638 1.301-3.803 1.952-6.495 1.952z" fill="url(#paint1_linear_67_2)"/><path d="M101.737 1.683c2.378 0 4.375.773 5.99 2.321 1.616 1.548 2.423 3.523 2.423 5.923s-.807 4.375-2.423 5.923c-1.615 1.547-3.612 2.321-5.99 2.321h-3.13v7.067h-6.023V1.683h9.153zm0 10.768c.673 0 1.234-.236 1.683-.707.471-.471.707-1.077.707-1.817s-.236-1.335-.707-1.784c-.449-.47-1.01-.706-1.683-.706h-3.13v5.014h3.13z" fill="url(#paint2_linear_67_2)"/></g><g filter="url(#filter1_d_67_2)"><path d="M92.708 54.178h-6.73l-6.764-10.533v10.533H73.19V30.622h6.024v9.893l6.427-9.893h6.73l-7.47 11.441 7.807 12.115z" fill="url(#paint3_linear_67_2)"/><path d="M106.702 54.178l-4.105-7.605h-2.154v7.605h-6.024V30.622h9.423c2.4 0 4.408.774 6.023 2.322 1.638 1.525 2.457 3.466 2.457 5.822a7.411 7.411 0 01-1.077 3.903c-.718 1.167-1.694 2.098-2.928 2.793l4.846 8.716h-6.461zm-6.259-18.003v5.283h3.331c.741.022 1.346-.213 1.817-.707.472-.494.707-1.133.707-1.918 0-.785-.235-1.425-.707-1.918-.471-.494-1.076-.74-1.817-.74h-3.331z" fill="url(#paint4_linear_67_2)"/><path d="M121.31 48.524h9.12v5.654h-15.143V30.622h14.974v5.62h-8.951v3.264h8.11v5.552h-8.11v3.466z" fill="url(#paint5_linear_67_2)"/><path d="M142.886 30.622c3.253 0 5.967 1.133 8.143 3.399 2.199 2.243 3.298 5.036 3.298 8.379s-1.099 6.147-3.298 8.413c-2.176 2.243-4.89 3.365-8.143 3.365h-9.591V30.622h9.591zm0 17.734c1.637 0 2.972-.538 4.004-1.615 1.032-1.1 1.548-2.546 1.548-4.341 0-1.795-.516-3.23-1.548-4.307-1.032-1.1-2.367-1.65-4.004-1.65h-3.399v11.913h3.399z" fill="url(#paint6_linear_67_2)"/><path d="M157.12 30.622h6.024v23.556h-6.024V30.622z" fill="url(#paint7_linear_67_2)"/><path d="M183 30.622v5.822h-5.822v17.734h-6.023V36.444h-5.822v-5.822H183z" fill="url(#paint8_linear_67_2)"/></g><g clip-path="url(#clip0_67_2)"><path d="M50.731 50.848l1.924 3.33h9.935L55.132 41.27l-4.407 7.625c-.34.604-.34 1.348.007 1.952z" fill="url(#paint9_linear_67_2)"/><path d="M34.84 50.833l1.932 3.345h11.122l-1.902-3.293a2.03 2.03 0 010-2.026l3.103-5.378a12.648 12.648 0 000-12.657l-1.916-3.315L34.84 48.88a1.964 1.964 0 000 1.952z" fill="url(#paint10_linear_67_2)"/><path d="M18.942 50.833l1.931 3.345h11.145l-1.91-3.308a2.03 2.03 0 010-2.026L41.15 29.726a12.648 12.648 0 000-12.656l-1.917-3.316L18.95 48.888a1.932 1.932 0 00-.008 1.945z" fill="url(#paint11_linear_67_2)"/><path d="M0 54.178h16.12l-.738-1.282c-1.65-2.94-1.518-3.3 0-6.063l17.83-30.861a12.647 12.647 0 000-12.657L31.295 0 0 54.178z" fill="url(#paint12_linear_67_2)"/></g><defs><linearGradient id="paint0_linear_67_2" x1="50.813" y1="13.46" x2="110.711" y2="13.46" gradientUnits="userSpaceOnUse"><stop stop-color="#1D1E23"/><stop offset="1" stop-color="red"/></linearGradient><linearGradient id="paint1_linear_67_2" x1="50.813" y1="13.46" x2="110.711" y2="13.46" gradientUnits="userSpaceOnUse"><stop stop-color="#1D1E23"/><stop offset="1" stop-color="red"/></linearGradient><linearGradient id="paint2_linear_67_2" x1="50.813" y1="13.46" x2="110.711" y2="13.46" gradientUnits="userSpaceOnUse"><stop stop-color="#1D1E23"/><stop offset="1" stop-color="red"/></linearGradient><linearGradient id="paint3_linear_67_2" x1="71.34" y1="42.4" x2="154.794" y2="42.4" gradientUnits="userSpaceOnUse"><stop stop-color="red"/><stop offset="1" stop-color="#F1C622"/></linearGradient><linearGradient id="paint4_linear_67_2" x1="71.34" y1="42.4" x2="154.794" y2="42.4" gradientUnits="userSpaceOnUse"><stop stop-color="red"/><stop offset="1" stop-color="#F1C622"/></linearGradient><linearGradient id="paint5_linear_67_2" x1="71.34" y1="42.4" x2="154.794" y2="42.4" gradientUnits="userSpaceOnUse"><stop stop-color="red"/><stop offset="1" stop-color="#F1C622"/></linearGradient><linearGradient id="paint6_linear_67_2" x1="71.34" y1="42.4" x2="154.794" y2="42.4" gradientUnits="userSpaceOnUse"><stop stop-color="red"/><stop offset="1" stop-color="#F1C622"/></linearGradient><linearGradient id="paint7_linear_67_2" x1="71.34" y1="42.4" x2="154.794" y2="42.4" gradientUnits="userSpaceOnUse"><stop stop-color="red"/><stop offset="1" stop-color="#F1C622"/></linearGradient><linearGradient id="paint8_linear_67_2" x1="71.34" y1="42.4" x2="154.794" y2="42.4" gradientUnits="userSpaceOnUse"><stop stop-color="red"/><stop offset="1" stop-color="#F1C622"/></linearGradient><linearGradient id="paint9_linear_67_2" x1="5.63" y1="5.721" x2="65.362" y2="17.292" gradientUnits="userSpaceOnUse"><stop offset=".118" stop-color="#1D1E23"/><stop offset=".641" stop-color="#FE0A02"/><stop offset="1" stop-color="#F1C622"/></linearGradient><linearGradient id="paint10_linear_67_2" x1="5.63" y1="5.721" x2="65.362" y2="17.292" gradientUnits="userSpaceOnUse"><stop offset=".118" stop-color="#1D1E23"/><stop offset=".641" stop-color="#FE0A02"/><stop offset="1" stop-color="#F1C622"/></linearGradient><linearGradient id="paint11_linear_67_2" x1="5.63" y1="5.721" x2="65.362" y2="17.292" gradientUnits="userSpaceOnUse"><stop offset=".118" stop-color="#1D1E23"/><stop offset=".641" stop-color="#FE0A02"/><stop offset="1" stop-color="#F1C622"/></linearGradient><linearGradient id="paint12_linear_67_2" x1="5.63" y1="5.721" x2="65.362" y2="17.292" gradientUnits="userSpaceOnUse"><stop offset=".118" stop-color="#1D1E23"/><stop offset=".641" stop-color="#FE0A02"/><stop offset="1" stop-color="#F1C622"/></linearGradient><filter id="filter0_d_67_2" x="44.962" y="1.178" width="65.189" height="28.565" filterUnits="userSpaceOnUse" color-interpolation-filters="sRGB"><feFlood flood-opacity="0" result="BackgroundImageFix"/><feColorMatrix in="SourceAlpha" values="0 0 0 0 0 0 0 0 0 0 0 0 0 0 0 0 0 0 127 0" result="hardAlpha"/><feOffset dx="-2" dy="2"/><feGaussianBlur stdDeviation="1"/><feComposite in2="hardAlpha" operator="out"/><feColorMatrix values="0 0 0 0 0 0 0 0 0 0 0 0 0 0 0 0 0 0 0.3 0"/><feBlend in2="BackgroundImageFix" result="effect1_dropShadow_67_2"/><feBlend in="SourceGraphic" in2="effect1_dropShadow_67_2" result="shape"/></filter><filter id="filter1_d_67_2" x="69.19" y="30.622" width="113.81" height="27.556" filterUnits="userSpaceOnUse" color-interpolation-filters="sRGB"><feFlood flood-opacity="0" result="BackgroundImageFix"/><feColorMatrix in="SourceAlpha" values="0 0 0 0 0 0 0 0 0 0 0 0 0 0 0 0 0 0 127 0" result="hardAlpha"/><feOffset dx="-2" dy="2"/><feGaussianBlur stdDeviation="1"/><feComposite in2="hardAlpha" operator="out"/><feColorMatrix values="0 0 0 0 0 0 0 0 0 0 0 0 0 0 0 0 0 0 0.3 0"/><feBlend in2="BackgroundImageFix" result="effect1_dropShadow_67_2"/><feBlend in="SourceGraphic" in2="effect1_dropShadow_67_2" result="shape"/></filter><clipPath id="clip0_67_2"><path fill="#fff" d="M0 0h62.59v54.178H0z"/></clipPath></defs></svg>