<svg width="50" height="50" viewBox="0 0 50 50" fill="none" xmlns="http://www.w3.org/2000/svg">
<g clip-path="url(#clip0_119_51)">
<path d="M37.5937 50.0097C40.0416 50.0097 42.3139 49.4102 44.2814 48.0664C45.2199 47.4253 46.4635 46.1092 47.5608 44.9481C47.9417 44.5453 48.301 44.1648 48.5871 43.8787C49.4922 42.9715 50.0006 41.7422 50.0006 40.4607C50.0006 39.1791 49.4922 37.9499 48.5871 37.0427L41.1816 29.6369C40.2744 28.7317 39.0452 28.2234 37.7636 28.2234C36.4821 28.2234 35.2529 28.7317 34.3457 29.6369L32.3316 31.6503C31.9584 32.0335 31.47 32.2839 30.9411 32.363C30.4121 32.4422 29.8718 32.3459 29.4028 32.0888C24.5076 29.4956 20.504 25.4922 17.9107 20.5971C17.6536 20.1281 17.5572 19.5878 17.6364 19.0588C17.7156 18.5298 17.966 18.0414 18.3492 17.6682L20.3629 15.6542C21.2677 14.7468 21.7757 13.5177 21.7757 12.2363C21.7757 10.9549 21.2677 9.72575 20.3629 8.81831L12.9574 1.41284C12.0501 0.507709 10.8209 -0.000610352 9.53941 -0.000610352C8.25788 -0.000610352 7.02867 0.507709 6.12144 1.41284C5.83521 1.69897 5.45465 2.05864 5.05172 2.4393C3.89068 3.53657 2.57467 4.78012 1.93355 5.7185C-3.63119 13.8651 3.57418 27.2077 13.1836 36.8169C20.4717 44.1053 29.906 50.0097 37.5937 50.0097ZM3.869 7.04096C4.36773 6.31098 5.63951 5.10913 6.66197 4.14331C7.0772 3.75092 7.46949 3.38022 7.77906 3.07055C8.24641 2.60428 8.87963 2.34243 9.5398 2.34243C10.2 2.34243 10.8332 2.60428 11.3005 3.07055L18.7061 10.4762C19.1713 10.9441 19.4325 11.5771 19.4325 12.237C19.4325 12.8968 19.1713 13.5298 18.7061 13.9977L16.6923 16.0115C15.957 16.7411 15.4769 17.6886 15.3236 18.7131C15.1702 19.7375 15.3519 20.7841 15.8414 21.697C18.6535 27.0053 22.995 31.3468 28.3033 34.159C29.2162 34.6485 30.2628 34.8301 31.2873 34.6768C32.3117 34.5234 33.2593 34.0434 33.9889 33.3081L36.0028 31.2942C36.4701 30.8279 37.1033 30.5661 37.7635 30.5661C38.4236 30.5661 39.0568 30.8279 39.5242 31.2942L46.9298 38.6998C47.3961 39.1672 47.6579 39.8004 47.6579 40.4606C47.6579 41.1208 47.3961 41.754 46.9298 42.2213C46.6203 42.5309 46.2498 42.923 45.8574 43.3381C44.8916 44.3602 43.6894 45.6321 42.9594 46.1311C35.9597 50.913 23.477 43.7958 14.8406 35.1598C6.20416 26.5238 -0.912542 14.0405 3.869 7.04096Z" fill="url(#paint0_linear_119_51)"/>
</g>
<defs>
<linearGradient id="paint0_linear_119_51" x1="50.0006" y1="-10.5028" x2="60.4625" y2="33.9366" gradientUnits="userSpaceOnUse">
<stop offset="0.117873" stop-color="#1D1E23"/>
<stop offset="0.615767" stop-color="#FE0A02"/>
<stop offset="1" stop-color="#F1C622"/>
</linearGradient>
<clipPath id="clip0_119_51">
<rect width="50" height="50" fill="white"/>
</clipPath>
</defs>
</svg>
