<svg width="50" height="50" viewBox="0 0 50 50" fill="none" xmlns="http://www.w3.org/2000/svg">
<g clip-path="url(#clip0_206_230)">
<path d="M48.4376 20.2146H45.4377C45.389 20.2146 45.3462 20.1831 45.3357 20.1396C44.8248 17.9944 43.9775 15.9505 42.8175 14.0646C42.7917 14.0228 42.7968 13.9706 42.8296 13.9379L44.9566 11.8108C45.2518 11.5156 45.4143 11.1233 45.4143 10.7061C45.4143 10.2887 45.2518 9.89629 44.9566 9.60127L40.3986 5.04336C40.1036 4.74814 39.7112 4.58564 39.2938 4.58564C38.8766 4.58564 38.4843 4.74814 38.1891 5.04326L36.062 7.17031C36.0292 7.20313 35.977 7.2082 35.9354 7.18242C34.0494 6.02236 32.0055 5.1751 29.8603 4.66416C29.8169 4.65381 29.7853 4.61094 29.7853 4.5623V1.5624C29.7854 0.700879 29.0845 0 28.2229 0H21.777C20.9155 0 20.2146 0.700879 20.2146 1.5624V4.5623C20.2146 4.61103 20.183 4.65381 20.1395 4.66416C17.9943 5.1752 15.9504 6.02236 14.0645 7.18242C14.0228 7.2083 13.9704 7.20322 13.9378 7.17031L11.8107 5.04326C11.5155 4.74814 11.1232 4.58564 10.706 4.58564C10.2886 4.58564 9.89619 4.74814 9.60117 5.04326L5.04346 9.60137C4.74824 9.89639 4.58574 10.2888 4.58574 10.7062C4.58574 11.1234 4.74824 11.5157 5.04336 11.8109L7.17041 13.938C7.20322 13.9707 7.2083 14.0229 7.18252 14.0646C6.02246 15.9506 5.1752 17.9945 4.66426 20.1396C4.65391 20.1831 4.61103 20.2147 4.5623 20.2147H1.5624C0.700879 20.2146 0 20.9155 0 21.7771V28.223C0 29.0845 0.700879 29.7854 1.5624 29.7854H4.5623C4.61103 29.7854 4.65381 29.817 4.66426 29.8605C5.1752 32.0057 6.02246 34.0496 7.18252 35.9355C7.2083 35.9773 7.20322 36.0295 7.17041 36.0622L5.04336 38.1894C4.74824 38.4845 4.58574 38.8769 4.58574 39.2941C4.58574 39.7115 4.74824 40.1039 5.04336 40.3989L9.60137 44.9568C9.89639 45.252 10.2888 45.4146 10.7062 45.4146C11.1234 45.4146 11.5157 45.2521 11.8109 44.9569L13.938 42.8299C13.9706 42.7969 14.0229 42.7918 14.0646 42.8178C15.9505 43.9777 17.9944 44.8251 20.1398 45.3361C20.1832 45.3465 20.2147 45.3894 20.2147 45.438V48.4379C20.2147 49.2993 20.9156 50.0003 21.7771 50.0003H28.2231C29.0846 50.0003 29.7855 49.2994 29.7855 48.4379V45.438C29.7855 45.3894 29.8171 45.3466 29.8606 45.3361C32.0059 44.8251 34.0497 43.9777 35.9356 42.8178C35.9772 42.7919 36.0296 42.797 36.0623 42.8299L38.1894 44.9569C38.4846 45.252 38.8769 45.4146 39.2941 45.4146C39.7115 45.4146 40.1039 45.2521 40.3988 44.9569L43.8694 41.4864C44.1549 41.2011 44.1549 40.7383 43.8695 40.4529C43.5841 40.1676 43.1213 40.1675 42.836 40.4528L39.3652 43.9234C39.3409 43.9478 39.3131 43.9529 39.294 43.9529C39.275 43.9529 39.2473 43.9478 39.2229 43.9233L37.0958 41.7963C36.5823 41.2829 35.7902 41.191 35.1697 41.5728C33.4162 42.6515 31.5159 43.4393 29.522 43.9144C28.8166 44.0822 28.3238 44.7088 28.3238 45.438V48.4379C28.3238 48.4935 28.2786 48.5387 28.223 48.5387H21.7771C21.7215 48.5387 21.6763 48.4935 21.6763 48.4379V45.438C21.6763 44.7088 21.1836 44.0822 20.4783 43.9144C18.4842 43.4393 16.5839 42.6515 14.8304 41.5728C14.2097 41.1912 13.4178 41.2829 12.9043 41.7963L10.7772 43.9233C10.7529 43.9478 10.7251 43.9529 10.7061 43.9529C10.687 43.9529 10.6593 43.9478 10.6349 43.9233L6.07676 39.3653C6.05244 39.341 6.04727 39.3132 6.04727 39.2941C6.04727 39.2751 6.05244 39.2474 6.07686 39.2229L8.20391 37.0959C8.71719 36.5825 8.80908 35.7905 8.42744 35.1698C7.34863 33.4162 6.56094 31.5159 6.08594 29.5219C5.91787 28.8166 5.29131 28.3239 4.56221 28.3239H1.5624C1.50684 28.3239 1.46162 28.2787 1.46162 28.2231V21.7771C1.46162 21.7216 1.50684 21.6764 1.5624 21.6764H4.5623C5.29141 21.6764 5.91797 21.1838 6.08604 20.4784C6.56104 18.4844 7.34873 16.5841 8.42754 14.8305C8.80918 14.2098 8.71729 13.4178 8.204 12.9044L6.07695 10.7773C6.05254 10.753 6.04736 10.7252 6.04736 10.7062C6.04736 10.6871 6.05254 10.6594 6.07695 10.635L10.635 6.07686C10.6593 6.05254 10.6871 6.04736 10.7062 6.04736C10.7252 6.04736 10.7529 6.05254 10.7773 6.07695L12.9044 8.204C13.4179 8.71719 14.2098 8.80918 14.8305 8.42754C16.5841 7.34873 18.4844 6.56104 20.4784 6.08604C21.1837 5.91797 21.6764 5.29141 21.6764 4.5623V1.5624C21.6764 1.50684 21.7216 1.46162 21.7771 1.46162H28.2231C28.2787 1.46162 28.3239 1.50684 28.3239 1.5624V4.5623C28.3239 5.29141 28.8165 5.91797 29.5219 6.08604C31.5159 6.56104 33.4162 7.34873 35.1698 8.42754C35.7905 8.80908 36.5824 8.71738 37.0959 8.204L39.2229 6.07695C39.2473 6.05254 39.2751 6.04736 39.2941 6.04736C39.3132 6.04736 39.3409 6.05254 39.3653 6.07695L43.9234 10.635C43.9478 10.6593 43.9529 10.6871 43.9529 10.7062C43.9529 10.7252 43.9478 10.7529 43.9233 10.7773L41.7963 12.9044C41.283 13.4178 41.1911 14.2098 41.5728 14.8305C42.6516 16.5841 43.4393 18.4844 43.9143 20.4784C44.0823 21.1837 44.7089 21.6764 45.438 21.6764H48.4379C48.4935 21.6764 48.5387 21.7216 48.5387 21.7771V28.2231C48.5387 28.2787 48.4935 28.3239 48.4379 28.3239H45.438C44.7089 28.3239 44.0823 28.8165 43.9143 29.5219C43.4393 31.5159 42.6516 33.4162 41.5728 35.1698C41.1911 35.7905 41.283 36.5825 41.7963 37.0959L43.9233 39.2229C43.9478 39.2473 43.9529 39.2751 43.9529 39.2941C43.9529 39.3132 43.9478 39.3409 43.9233 39.3653L42.836 40.4528C42.5507 40.7383 42.5505 41.201 42.8358 41.4864C43.1212 41.7716 43.5839 41.7718 43.8694 41.4864L44.9568 40.3989C45.2521 40.1039 45.4146 39.7115 45.4146 39.2941C45.4146 38.8769 45.2521 38.4846 44.9569 38.1894L42.8299 36.0622C42.7971 36.0295 42.792 35.9773 42.8178 35.9355C43.9778 34.0496 44.8251 32.0057 45.336 29.8605C45.3464 29.8171 45.3893 29.7854 45.438 29.7854H48.4379C49.2993 29.7854 50.0003 29.0846 50.0003 28.223V21.7771C50 20.9155 49.2991 20.2146 48.4376 20.2146Z" fill="url(#paint0_linear_206_230)"/>
<path d="M11.4058 18.5955C11.0065 18.5355 10.4627 18.8857 10.4036 19.2849C10.1215 19.9999 9.5 20.9999 9.32861 25C9.32861 33.6413 16.3588 40.6715 25.0001 40.6715C33.6414 40.6715 40.6716 33.6413 40.6716 25C40.6716 16.3587 33.6414 9.32849 25.0001 9.32849C21.8011 9.32849 18.7241 10.2862 16.1018 12.0981C13.5406 13.8677 11.5808 16.3262 10.4332 19.2099L10.4036 19.2849C10.2555 19.6603 10.4396 20.0848 10.8151 20.233C11.1904 20.381 11.1426 20.9114 11.5 20.4999L11.792 19.7485C12.8318 17.1354 14.6095 14.9058 16.9325 13.3007C19.3096 11.6582 22.0992 10.7901 25.0001 10.7901C32.8354 10.7901 39.21 17.1646 39.21 25C39.21 32.8353 32.8354 39.2098 25.0001 39.2098C17.1647 39.2098 10.7902 32.8353 10.7902 25C10.7902 21.4999 11.7477 20.188 11.8495 19.4986C11.9085 19.0994 11.8051 18.6545 11.4058 18.5955Z" fill="url(#paint1_linear_206_230)"/>
<path d="M22.9241 32.5869C22.9541 32.5869 22.9842 32.5865 23.0141 32.5856C23.8576 32.5614 24.6692 32.1922 25.2411 31.5726L33.4276 22.7056C33.999 22.0868 34.2952 21.2825 34.2618 20.4409C34.2282 19.5993 33.869 18.8211 33.25 18.2497C31.9726 17.0702 29.9735 17.15 28.794 18.4274L22.7957 24.9239L21.0812 23.2667C19.8308 22.0584 17.8305 22.0927 16.6222 23.3428C15.4139 24.593 15.448 26.5931 16.6982 27.8016L20.7327 31.701C21.3238 32.2722 22.102 32.5869 22.9241 32.5869ZM17.6731 24.3585C18.0045 24.0156 18.447 23.8432 18.8899 23.8432C19.3134 23.8432 19.7375 24.001 20.0655 24.3177L22.3177 26.4944C22.4591 26.631 22.6508 26.7044 22.8463 26.6995C23.043 26.6939 23.229 26.6093 23.3625 26.4647L29.8679 19.4188C30.5008 18.7334 31.5733 18.6909 32.2585 19.3234C32.5905 19.63 32.7832 20.0474 32.8012 20.4991C32.8192 20.9507 32.6603 21.3821 32.3536 21.7141L24.1668 30.5813C23.8602 30.9137 23.4246 31.1117 22.9719 31.1247C22.5143 31.1378 22.0769 30.9677 21.7482 30.6501L17.7138 26.7508C17.0432 26.1023 17.0249 25.0292 17.6731 24.3585Z" fill="url(#paint2_linear_206_230)"/>
</g>
<defs>
<linearGradient id="paint0_linear_206_230" x1="50.0003" y1="-10.5001" x2="60.4601" y2="33.9304" gradientUnits="userSpaceOnUse">
<stop offset="0.117873" stop-color="#1D1E23"/>
<stop offset="0.615767" stop-color="#FE0A02"/>
<stop offset="1" stop-color="#F1C622"/>
</linearGradient>
<linearGradient id="paint1_linear_206_230" x1="40.6716" y1="2.74647" x2="47.2284" y2="30.598" gradientUnits="userSpaceOnUse">
<stop offset="0.117873" stop-color="#1D1E23"/>
<stop offset="0.615767" stop-color="#FE0A02"/>
<stop offset="1" stop-color="#F1C622"/>
</linearGradient>
<linearGradient id="paint2_linear_206_230" x1="34.2643" y1="14.2285" x2="36.9094" y2="27.9479" gradientUnits="userSpaceOnUse">
<stop offset="0.117873" stop-color="#1D1E23"/>
<stop offset="0.615767" stop-color="#FE0A02"/>
<stop offset="1" stop-color="#F1C622"/>
</linearGradient>
<clipPath id="clip0_206_230">
<rect width="50" height="50" fill="white"/>
</clipPath>
</defs>
</svg>
