<svg width="50" height="50" viewBox="0 0 50 50" fill="none" xmlns="http://www.w3.org/2000/svg">
<path d="M25.5 0C20.8587 0 16.4075 1.84374 13.1256 5.12563C9.84374 8.40752 8 12.8587 8 17.5C8 22.6625 12.85 30.1625 17.3 35.975C12.3 37.225 9.25 39.725 9.25 42.5C9.25 46.775 16.2375 50 25.5 50C34.7625 50 41.75 46.775 41.75 42.5C41.75 39.6875 38.7125 37.2625 33.7 35.975C38.15 30.1625 43 22.6625 43 17.5C43 12.8587 41.1563 8.40752 37.8744 5.12563C34.5925 1.84374 30.1413 0 25.5 0ZM25.5 2.5C29.4782 2.5 33.2936 4.08035 36.1066 6.8934C38.9196 9.70644 40.5 13.5218 40.5 17.5C40.5 22.5 34.975 30.3875 30.5 36.0625C28.4625 38.5625 26.625 40.7125 25.575 41.875C24.525 40.7125 22.6875 38.6125 20.65 36.0625C16.025 30.3875 10.5 22.5 10.5 17.5C10.5 13.5218 12.0804 9.70644 14.8934 6.8934C17.7064 4.08035 21.5218 2.5 25.5 2.5ZM39.25 42.5C39.25 44.8625 33.375 47.5 25.5 47.5C17.625 47.5 11.75 44.8625 11.75 42.5C11.75 41.05 14.25 39.15 19.0125 38.15C21.925 41.7625 24.3375 44.3375 24.5875 44.6125C24.7044 44.7374 24.8457 44.8369 25.0027 44.905C25.1597 44.9731 25.3289 45.0082 25.5 45.0082C25.6711 45.0082 25.8403 44.9731 25.9973 44.905C26.1543 44.8369 26.2956 44.7374 26.4125 44.6125C26.6625 44.3375 29.075 41.7625 31.9875 38.15C36.75 39.15 39.25 41.05 39.25 42.5Z" fill="url(#paint0_linear_119_48)"/>
<path d="M25.5 24.9999C26.9834 24.9999 28.4334 24.56 29.6668 23.7359C30.9001 22.9118 31.8614 21.7405 32.4291 20.37C32.9968 18.9996 33.1453 17.4916 32.8559 16.0367C32.5665 14.5818 31.8522 13.2455 30.8033 12.1966C29.7544 11.1477 28.418 10.4334 26.9632 10.144C25.5083 9.8546 24.0003 10.0031 22.6299 10.5708C21.2594 11.1384 20.0881 12.0997 19.264 13.3331C18.4399 14.5665 18 16.0165 18 17.4999C18 19.489 18.7902 21.3967 20.1967 22.8032C21.6032 24.2097 23.5109 24.9999 25.5 24.9999ZM25.5 12.4999C26.4889 12.4999 27.4556 12.7931 28.2779 13.3425C29.1001 13.8919 29.741 14.6728 30.1194 15.5865C30.4978 16.5001 30.5969 17.5054 30.4039 18.4753C30.211 19.4452 29.7348 20.3362 29.0355 21.0354C28.3363 21.7347 27.4454 22.2109 26.4755 22.4038C25.5055 22.5967 24.5002 22.4977 23.5866 22.1193C22.673 21.7408 21.8921 21.1 21.3427 20.2777C20.7932 19.4555 20.5 18.4888 20.5 17.4999C20.5 16.1738 21.0268 14.902 21.9645 13.9643C22.9021 13.0267 24.1739 12.4999 25.5 12.4999Z" fill="url(#paint1_linear_119_48)"/>
<defs>
<linearGradient id="paint0_linear_119_48" x1="43" y1="-10.5" x2="57.1682" y2="31.6277" gradientUnits="userSpaceOnUse">
<stop offset="0.117873" stop-color="#1D1E23"/>
<stop offset="0.615767" stop-color="#FE0A02"/>
<stop offset="1" stop-color="#F1C622"/>
</linearGradient>
<linearGradient id="paint1_linear_119_48" x1="38" y1="6.49988" x2="40.6912" y2="29.2513" gradientUnits="userSpaceOnUse">
<stop offset="0.117873" stop-color="#1D1E23"/>
<stop offset="0.615767" stop-color="#FE0A02"/>
</linearGradient>
</defs>
</svg>
