<svg width="62" height="61" viewBox="0 0 62 61" fill="none" xmlns="http://www.w3.org/2000/svg">
<g clip-path="url(#clip0_119_61)">
<path d="M57.1923 12.364C57.5665 12.3645 57.9335 12.4671 58.2537 12.6608C58.5739 12.8544 58.8352 13.1317 59.0095 13.4628C59.1693 13.7567 59.2517 14.0863 59.249 14.4208V45.525C59.249 46.0705 59.0323 46.5936 58.6466 46.9794C58.2609 47.3651 57.7378 47.5818 57.1923 47.5818H4.95738C4.4119 47.5818 3.88877 47.3651 3.50306 46.9794C3.11735 46.5936 2.90066 46.0705 2.90066 45.525V14.4208C2.89797 14.0863 2.98038 13.7567 3.14014 13.4628C3.31443 13.1317 3.57576 12.8544 3.89598 12.6608C4.21619 12.4671 4.58317 12.3645 4.95738 12.364H57.1923ZM57.1923 10.251H4.95738C3.85148 10.251 2.79088 10.6903 2.0089 11.4723C1.22691 12.2543 0.787598 13.3149 0.787598 14.4208V45.525C0.78946 46.6304 1.22937 47.6899 2.01095 48.4715C2.79254 49.253 3.85205 49.693 4.95738 49.6948H57.1923C58.2976 49.693 59.3571 49.253 60.1387 48.4715C60.9203 47.6899 61.3602 46.6304 61.3621 45.525V14.4208C61.3621 13.3149 60.9228 12.2543 60.1408 11.4723C59.3588 10.6903 58.2982 10.251 57.1923 10.251Z" fill="#AA0B0D"/>
<path d="M57.1926 12.364C57.3225 12.365 57.4521 12.3767 57.58 12.3993L33.9348 31.3182C33.1209 31.9656 32.1116 32.3181 31.0716 32.3181C30.0316 32.3181 29.0223 31.9656 28.2084 31.3182L4.5703 12.3993C4.69823 12.3767 4.82781 12.365 4.9577 12.364H57.1926ZM57.1926 10.251H4.9577C4.20036 10.2528 3.4577 10.4601 2.80894 10.8508C2.16018 11.2416 1.62965 11.8011 1.27393 12.4697L26.8913 32.9664C28.0794 33.9151 29.5547 34.4318 31.0752 34.4318C32.5956 34.4318 34.0709 33.9151 35.259 32.9664L60.8764 12.4697C60.5207 11.8011 59.9901 11.2416 59.3414 10.8508C58.6926 10.4601 57.95 10.2528 57.1926 10.251Z" fill="#AA0B0D"/>
<path d="M3.64034 49.3918C3.38349 49.3974 3.13329 49.3098 2.93599 49.1453C2.82897 49.0569 2.74054 48.9482 2.67582 48.8255C2.6111 48.7027 2.57136 48.5684 2.55892 48.4301C2.54647 48.2919 2.56156 48.1526 2.60331 48.0203C2.64506 47.8879 2.71265 47.7652 2.80216 47.6591L20.3688 26.606C20.4548 26.4914 20.5633 26.3955 20.6876 26.3242C20.8119 26.2529 20.9494 26.2076 21.0918 26.1911C21.2341 26.1746 21.3783 26.1872 21.5156 26.2282C21.653 26.2692 21.7805 26.3377 21.8905 26.4295C22.0005 26.5214 22.0907 26.6346 22.1555 26.7624C22.2204 26.8902 22.2586 27.0298 22.2678 27.1728C22.277 27.3158 22.257 27.4592 22.209 27.5943C22.1611 27.7293 22.0861 27.8532 21.9888 27.9583L4.45035 48.9903C4.35279 49.1123 4.22973 49.2114 4.0898 49.2808C3.94987 49.3501 3.79647 49.388 3.64034 49.3918Z" fill="#AA0B0D"/>
<path d="M58.5447 49.3918C58.3826 49.3933 58.2223 49.3579 58.0759 49.2883C57.9295 49.2188 57.8008 49.1169 57.6995 48.9903L40.1611 27.9583C40.0637 27.8532 39.9888 27.7293 39.9408 27.5943C39.8929 27.4592 39.8729 27.3158 39.8821 27.1728C39.8913 27.0298 39.9294 26.8902 39.9943 26.7624C40.0592 26.6346 40.1493 26.5214 40.2593 26.4295C40.3694 26.3377 40.4969 26.2692 40.6342 26.2282C40.7715 26.1872 40.9157 26.1746 41.0581 26.1911C41.2004 26.2076 41.3379 26.2529 41.4622 26.3242C41.5865 26.3955 41.695 26.4914 41.7811 26.606L59.3195 47.6591C59.409 47.7652 59.4766 47.8879 59.5184 48.0203C59.5601 48.1526 59.5752 48.2919 59.5628 48.4301C59.5503 48.5684 59.5106 48.7027 59.4459 48.8255C59.3811 48.9482 59.2927 49.0569 59.1857 49.1453C59.0052 49.2961 58.7798 49.3828 58.5447 49.3918Z" fill="#AA0B0D"/>
</g>
<defs>
<clipPath id="clip0_119_61">
<rect width="60.5745" height="60.5745" fill="white" transform="translate(0.787598)"/>
</clipPath>
</defs>
</svg>
