<svg width="61" height="61" viewBox="0 0 61 61" fill="none" xmlns="http://www.w3.org/2000/svg">
<g clip-path="url(#clip0_119_59)">
<path d="M1.4243 28.8738L14.0864 36.8494L19.8157 51.1561C19.9357 51.456 20.1224 51.7247 20.3616 51.9418C20.6008 52.1589 20.8862 52.3188 21.1962 52.4093C21.5063 52.4999 21.8329 52.5187 22.1513 52.4645C22.4698 52.4102 22.7717 52.2842 23.0342 52.096L30.2022 46.9987L43.0329 55.0823C43.4855 55.3705 44.0107 55.5238 44.5473 55.5245C45.1623 55.524 45.7608 55.3255 46.2543 54.9584C46.7477 54.5913 47.1099 54.0751 47.2873 53.4862L60.6611 8.83071C60.8162 8.31294 60.8253 7.76243 60.6876 7.23978C60.5499 6.71714 60.2706 6.24263 59.8805 5.86852C59.4904 5.4944 59.0047 5.23519 58.4767 5.11943C57.9488 5.00366 57.3991 5.03583 56.8883 5.21239L1.96442 24.2116C1.50116 24.3721 1.0926 24.6601 0.785732 25.0424C0.478859 25.4248 0.286131 25.886 0.229709 26.373C0.173288 26.86 0.255464 27.3531 0.466788 27.7955C0.678113 28.2379 1.01 28.6116 1.4243 28.8738ZM20.7879 48.1567L16.151 36.5768L46.623 17.1102C46.6332 17.1153 46.6423 17.1223 46.6497 17.1309C46.6571 17.1395 46.6628 17.1495 46.6663 17.1604C46.6697 17.1712 46.671 17.1826 46.67 17.1939C46.669 17.2053 46.6657 17.2163 46.6603 17.2263L22.0196 40.3547C21.9845 40.395 21.9525 40.4379 21.9237 40.4829C21.9035 40.5091 21.8752 40.5243 21.8571 40.5526C21.85 40.5647 21.85 40.5788 21.8429 40.5909C21.7976 40.6713 21.7636 40.7576 21.742 40.8473C21.7302 40.8804 21.7205 40.9141 21.7127 40.9483C21.7127 40.9544 21.7077 40.9604 21.7067 40.9665L20.7879 48.1567ZM22.5951 49.9365L23.5118 42.7898L28.3557 45.8346L22.5951 49.9365ZM2.23196 26.6053C2.24263 26.4952 2.28518 26.3906 2.3544 26.3044C2.42362 26.2181 2.5165 26.1539 2.62165 26.1197L57.5425 7.12049C57.7021 7.0651 57.8739 7.0549 58.039 7.09102C58.204 7.12713 58.3559 7.20815 58.4778 7.32514C58.5997 7.44213 58.6869 7.59052 58.7297 7.75395C58.7726 7.91737 58.7695 8.08946 58.7207 8.25121L45.3559 52.9097C45.3189 53.0332 45.2539 53.1465 45.1659 53.2407C45.0779 53.3349 44.9693 53.4076 44.8486 53.4529C44.7279 53.4982 44.5984 53.5151 44.4701 53.5021C44.3418 53.4892 44.2183 53.4468 44.1091 53.3782L30.7141 44.9381L30.6858 44.92L24.3588 40.9332L48.0424 18.6983C48.4207 18.3441 48.653 17.8613 48.6936 17.3446C48.7342 16.828 48.5804 16.3148 48.2621 15.9058C47.9439 15.4968 47.4843 15.2215 46.9735 15.1339C46.4627 15.0463 45.9377 15.1527 45.5013 15.4323L14.9031 34.9787L2.50555 27.1656C2.41003 27.1093 2.33317 27.0262 2.28453 26.9266C2.23588 26.8269 2.2176 26.7152 2.23196 26.6053Z" fill="#AA0B0D"/>
</g>
<defs>
<clipPath id="clip0_119_59">
<rect width="60.5745" height="60.5745" fill="white" transform="translate(0.212891)"/>
</clipPath>
</defs>
</svg>
