<svg width="60" height="60" viewBox="0 0 60 60" fill="none" xmlns="http://www.w3.org/2000/svg">
<g clip-path="url(#clip0_206_167)">
<path d="M0 60L3.45847 42.9913C1.4315 38.8896 0.386584 34.3716 0.407887 29.796C0.407887 13.373 13.7809 0 30.2039 0C46.6275 0 60 13.373 60 29.796C60 46.2191 46.6275 59.5921 30.2039 59.5921C25.633 59.6051 21.1213 58.5544 17.0263 56.5238L0 60ZM17.4342 53.5444L17.8774 53.7746C21.6871 55.7444 25.9157 56.7665 30.2039 56.7545C45.0666 56.7545 57.1624 44.6587 57.1624 29.796C57.1624 14.9334 45.0666 2.83754 30.2039 2.83754C15.3412 2.83754 3.24543 14.9334 3.24543 29.796C3.23348 34.0848 4.25554 38.3128 6.22535 42.1225L6.45605 42.5658L3.63565 56.3643L17.4342 53.5444Z" fill="#AA0B0D"/>
<path d="M38.6107 46.8223H37.2982C23.9964 46.8223 13.1777 36.0037 13.1777 22.7019V21.3893C13.1757 19.1317 14.0761 16.967 15.6786 15.377L16.8492 14.2064C18.6756 12.3795 21.8681 12.3795 23.695 14.2064L27.3665 17.8597C28.2779 18.7654 28.7887 19.9979 28.785 21.2828C28.7809 22.5662 28.2711 23.7961 27.3665 24.706L27.0293 25.0427C26.3346 25.7395 25.9454 26.6836 25.9475 27.6677C25.9511 28.6503 26.3398 29.5928 27.0293 30.2927L29.6896 32.9531C31.0733 34.3363 33.556 34.3363 34.9574 32.9531L35.2941 32.6159C37.121 30.7889 40.3134 30.7889 42.1403 32.6159L45.8113 36.305C47.7016 38.1959 47.7016 41.2605 45.8113 43.1508L44.6412 44.3214C43.0465 45.9286 40.8746 46.829 38.6107 46.8223ZM20.2719 15.6072C19.7403 15.6067 19.2295 15.8171 18.8533 16.1928L17.6827 17.3635C16.6144 18.4235 16.0142 19.8664 16.0153 21.3717V22.7019C16.0252 34.4516 25.5484 43.9749 37.2982 43.9847H38.6107C40.116 43.9858 41.5589 43.3856 42.6189 42.3173L43.7896 41.1467C44.1668 40.771 44.3783 40.2602 44.3783 39.7282C44.3783 39.1956 44.1668 38.6853 43.7896 38.3091L40.1362 34.6376C39.3418 33.8811 38.0932 33.8811 37.2982 34.6376L36.9615 34.9749C34.3993 37.5344 30.2477 37.5344 27.6855 34.9749L25.0252 32.3145C23.7989 31.0789 23.1099 29.4089 23.1099 27.6677C23.1073 25.9312 23.7963 24.2653 25.0252 23.0386L25.3624 22.7019C25.736 22.3241 25.9464 21.8144 25.9475 21.2828C25.9485 20.7508 25.7381 20.2405 25.3624 19.8638L21.6909 16.1928C21.3142 15.8171 20.8039 15.6067 20.2719 15.6072Z" fill="#AA0B0D"/>
</g>
<defs>
<clipPath id="clip0_206_167">
<rect width="60" height="60" fill="white"/>
</clipPath>
</defs>
</svg>
