<svg width="50" height="50" viewBox="0 0 50 50" fill="none" xmlns="http://www.w3.org/2000/svg">
<g clip-path="url(#clip0_119_76)">
<path d="M25 49.9999C11.1929 49.9999 0 38.8069 0 24.9999C0 11.1928 11.1929 -0.00012207 25 -0.00012207C38.807 -0.00012207 50 11.1928 50 24.9999C50 38.8069 38.807 49.9999 25 49.9999ZM25 47.4999C37.4265 47.4999 47.5 37.4264 47.5 24.9999C47.5 12.5735 37.4265 2.49988 25 2.49988C12.5736 2.49988 2.5 12.5735 2.5 24.9999C2.5 37.4264 12.5736 47.4999 25 47.4999ZM34.4765 30.2326C35.0382 30.6339 35.1685 31.4146 34.7673 31.9764C34.366 32.5381 33.5853 32.6684 33.0235 32.2671L24.2735 26.0171C24.0393 25.8496 23.8698 25.6066 23.794 25.3289L20.044 11.5788C19.8624 10.9128 20.255 10.2256 20.921 10.0439C21.5872 9.86228 22.2743 10.255 22.456 10.921L26.0888 24.2414L34.4765 30.2326Z" fill="black"/>
<path d="M25 49.9999C11.1929 49.9999 0 38.8069 0 24.9999C0 11.1928 11.1929 -0.00012207 25 -0.00012207C38.807 -0.00012207 50 11.1928 50 24.9999C50 38.8069 38.807 49.9999 25 49.9999ZM25 47.4999C37.4265 47.4999 47.5 37.4264 47.5 24.9999C47.5 12.5735 37.4265 2.49988 25 2.49988C12.5736 2.49988 2.5 12.5735 2.5 24.9999C2.5 37.4264 12.5736 47.4999 25 47.4999ZM34.4765 30.2326C35.0382 30.6339 35.1685 31.4146 34.7673 31.9764C34.366 32.5381 33.5853 32.6684 33.0235 32.2671L24.2735 26.0171C24.0393 25.8496 23.8698 25.6066 23.794 25.3289L20.044 11.5788C19.8624 10.9128 20.255 10.2256 20.921 10.0439C21.5872 9.86228 22.2743 10.255 22.456 10.921L26.0888 24.2414L34.4765 30.2326Z" fill="url(#paint0_linear_119_76)"/>
</g>
<defs>
<linearGradient id="paint0_linear_119_76" x1="50" y1="-10.5001" x2="60.4598" y2="33.9301" gradientUnits="userSpaceOnUse">
<stop offset="0.117873" stop-color="#1D1E23"/>
<stop offset="0.615767" stop-color="#FE0A02"/>
<stop offset="1" stop-color="#F1C622"/>
</linearGradient>
<clipPath id="clip0_119_76">
<rect width="50" height="50" fill="white"/>
</clipPath>
</defs>
</svg>
