<svg width="60" height="60" fill="none" xmlns="http://www.w3.org/2000/svg"><g clip-path="url(#clip0_206_167)" fill="#AA0B0D"><path d="M0 60l3.458-17.009a29.476 29.476 0 01-3.05-13.195C.408 13.373 13.78 0 30.204 0 46.627 0 60 13.373 60 29.796c0 16.423-13.373 29.796-29.796 29.796a29.475 29.475 0 01-13.178-3.068L0 60zm17.434-6.456l.443.23a26.677 26.677 0 0012.327 2.98c14.863 0 26.958-12.095 26.958-26.958 0-14.863-12.095-26.958-26.958-26.958-14.863 0-26.959 12.095-26.959 26.958a26.675 26.675 0 002.98 12.327l.231.443-2.82 13.798 13.798-2.82z"/><path d="M38.61 46.822h-1.312c-13.302 0-24.12-10.818-24.12-24.12v-1.313a8.459 8.459 0 012.5-6.012l1.171-1.17c1.827-1.828 5.02-1.828 6.846 0l3.671 3.653a4.806 4.806 0 011.419 3.423 4.878 4.878 0 01-1.419 3.423l-.337.337a3.706 3.706 0 00-1.081 2.625 3.761 3.761 0 001.081 2.625l2.66 2.66c1.384 1.383 3.867 1.383 5.268 0l.337-.337c1.827-1.827 5.02-1.827 6.846 0l3.671 3.689a4.84 4.84 0 010 6.846l-1.17 1.17a8.46 8.46 0 01-6.03 2.501zM20.273 15.607c-.532 0-1.042.21-1.419.586l-1.17 1.17a5.64 5.64 0 00-1.668 4.009v1.33c.01 11.75 9.533 21.273 21.283 21.283h1.313a5.64 5.64 0 004.008-1.668l1.17-1.17a2.002 2.002 0 000-2.838l-3.653-3.671a2.058 2.058 0 00-2.838 0l-.337.337a6.563 6.563 0 01-9.275 0l-2.66-2.66a6.597 6.597 0 01-1.916-4.647 6.526 6.526 0 011.915-4.63l.337-.336a2.03 2.03 0 00.586-1.42 2.004 2.004 0 00-.586-1.418l-3.671-3.671a2.006 2.006 0 00-1.42-.586z"/></g><defs><clipPath id="clip0_206_167"><path fill="#fff" d="M0 0h60v60H0z"/></clipPath></defs></svg>