<svg width="50" height="50" fill="none" xmlns="http://www.w3.org/2000/svg"><path d="M25.5 0A17.5 17.5 0 008 17.5c0 5.163 4.85 12.663 9.3 18.475-5 1.25-8.05 3.75-8.05 6.525 0 4.275 6.988 7.5 16.25 7.5 9.263 0 16.25-3.225 16.25-7.5 0-2.813-3.038-5.237-8.05-6.525C38.15 30.162 43 22.662 43 17.5A17.5 17.5 0 0025.5 0zm0 2.5a15 15 0 0115 15c0 5-5.525 12.887-10 18.563-2.038 2.5-3.875 4.65-4.925 5.812a131.046 131.046 0 01-4.925-5.813C16.025 30.389 10.5 22.5 10.5 17.5a15 15 0 0115-15zm13.75 40c0 2.362-5.875 5-13.75 5s-13.75-2.638-13.75-5c0-1.45 2.5-3.35 7.262-4.35 2.913 3.613 5.325 6.188 5.575 6.462a1.25 1.25 0 001.826 0c.25-.275 2.662-2.85 5.575-6.462 4.762 1 7.262 2.9 7.262 4.35z" fill="url(#paint0_linear_119_48)"/><path d="M25.5 25a7.5 7.5 0 100-15 7.5 7.5 0 000 15zm0-12.5a5 5 0 110 10 5 5 0 010-10z" fill="url(#paint1_linear_119_48)"/><defs><linearGradient id="paint0_linear_119_48" x1="43" y1="-10.5" x2="57.168" y2="31.628" gradientUnits="userSpaceOnUse"><stop offset=".118" stop-color="#1D1E23"/><stop offset=".616" stop-color="#FE0A02"/><stop offset="1" stop-color="#F1C622"/></linearGradient><linearGradient id="paint1_linear_119_48" x1="38" y1="6.5" x2="40.691" y2="29.251" gradientUnits="userSpaceOnUse"><stop offset=".118" stop-color="#1D1E23"/><stop offset=".616" stop-color="#FE0A02"/></linearGradient></defs></svg>