<svg width="62" height="61" fill="none" xmlns="http://www.w3.org/2000/svg"><g clip-path="url(#clip0_119_61)" fill="#AA0B0D"><path d="M57.192 12.364a2.056 2.056 0 011.818 1.099c.16.294.242.623.239.958v31.104a2.057 2.057 0 01-2.057 2.057H4.957a2.057 2.057 0 01-2.056-2.057V14.421c-.003-.335.08-.664.24-.958a2.057 2.057 0 011.816-1.099h52.235zm0-2.113H4.957a4.17 4.17 0 00-4.17 4.17v31.104a4.177 4.177 0 004.17 4.17h52.235a4.177 4.177 0 004.17-4.17V14.421a4.17 4.17 0 00-4.17-4.17z"/><path d="M57.193 12.364c.13.001.26.013.387.035L33.935 31.32a4.6 4.6 0 01-5.727 0L4.57 12.398a2.33 2.33 0 01.388-.035h52.235zm0-2.113H4.958a4.184 4.184 0 00-3.684 2.219L26.89 32.966a6.705 6.705 0 008.368 0L60.876 12.47a4.185 4.185 0 00-3.683-2.219z"/><path d="M3.64 49.392a1.064 1.064 0 01-1.081-.962 1.049 1.049 0 01.243-.77L20.37 26.605a1.055 1.055 0 011.787.156 1.056 1.056 0 01-.167 1.196L4.45 48.99a1.07 1.07 0 01-.81.402zm54.905 0a1.069 1.069 0 01-.846-.402L40.162 27.958a1.056 1.056 0 111.62-1.352L59.32 47.659a1.05 1.05 0 01-.133 1.486c-.18.151-.406.238-.641.247z"/></g><defs><clipPath id="clip0_119_61"><path fill="#fff" transform="translate(.788)" d="M0 0h60.575v60.575H0z"/></clipPath></defs></svg>