<svg width="50" height="50" fill="none" xmlns="http://www.w3.org/2000/svg"><g clip-path="url(#clip0_119_51)"><path d="M37.594 50.01c2.448 0 4.72-.6 6.687-1.944.939-.64 2.183-1.957 3.28-3.118.38-.403.74-.783 1.026-1.07a4.84 4.84 0 000-6.835l-7.405-7.406a4.839 4.839 0 00-6.836 0l-2.014 2.013a2.446 2.446 0 01-2.93.439 27.656 27.656 0 01-11.491-11.492 2.447 2.447 0 01.438-2.929l2.014-2.014a4.84 4.84 0 000-6.836l-7.406-7.405a4.84 4.84 0 00-6.836 0c-.286.286-.666.646-1.07 1.026-1.16 1.098-2.476 2.341-3.117 3.28-5.565 8.146 1.64 21.489 11.25 31.098 7.288 7.288 16.722 13.193 24.41 13.193zM3.869 7.04c.499-.73 1.77-1.932 2.793-2.898A62.06 62.06 0 007.779 3.07a2.493 2.493 0 013.521 0l7.406 7.405a2.497 2.497 0 010 3.522l-2.014 2.014a4.808 4.808 0 00-.85 5.685 29.99 29.99 0 0012.461 12.462 4.809 4.809 0 005.686-.85l2.014-2.015a2.493 2.493 0 013.521 0L46.93 38.7a2.493 2.493 0 010 3.521c-.31.31-.68.702-1.073 1.117-.965 1.022-2.168 2.294-2.898 2.793-7 4.782-19.482-2.335-28.118-10.971C6.204 26.524-.913 14.04 3.869 7.04z" fill="url(#paint0_linear_119_51)"/></g><defs><linearGradient id="paint0_linear_119_51" x1="50.001" y1="-10.503" x2="60.462" y2="33.937" gradientUnits="userSpaceOnUse"><stop offset=".118" stop-color="#1D1E23"/><stop offset=".616" stop-color="#FE0A02"/><stop offset="1" stop-color="#F1C622"/></linearGradient><clipPath id="clip0_119_51"><path fill="#fff" d="M0 0h50v50H0z"/></clipPath></defs></svg>