<svg width="50" height="50" fill="none" xmlns="http://www.w3.org/2000/svg"><g clip-path="url(#clip0_119_76)"><path d="M25 50C11.193 50 0 38.807 0 25S11.193 0 25 0s25 11.193 25 25-11.193 25-25 25zm0-2.5c12.426 0 22.5-10.074 22.5-22.5C47.5 12.573 37.426 2.5 25 2.5S2.5 12.573 2.5 25c0 12.426 10.074 22.5 22.5 22.5zm9.477-17.267a1.25 1.25 0 01-1.453 2.034l-8.75-6.25a1.252 1.252 0 01-.48-.688l-3.75-13.75a1.25 1.25 0 012.412-.658l3.633 13.32 8.388 5.992z" fill="#000"/><path d="M25 50C11.193 50 0 38.807 0 25S11.193 0 25 0s25 11.193 25 25-11.193 25-25 25zm0-2.5c12.426 0 22.5-10.074 22.5-22.5C47.5 12.573 37.426 2.5 25 2.5S2.5 12.573 2.5 25c0 12.426 10.074 22.5 22.5 22.5zm9.477-17.267a1.25 1.25 0 01-1.453 2.034l-8.75-6.25a1.252 1.252 0 01-.48-.688l-3.75-13.75a1.25 1.25 0 012.412-.658l3.633 13.32 8.388 5.992z" fill="url(#paint0_linear_119_76)"/></g><defs><linearGradient id="paint0_linear_119_76" x1="50" y1="-10.5" x2="60.46" y2="33.93" gradientUnits="userSpaceOnUse"><stop offset=".118" stop-color="#1D1E23"/><stop offset=".616" stop-color="#FE0A02"/><stop offset="1" stop-color="#F1C622"/></linearGradient><clipPath id="clip0_119_76"><path fill="#fff" d="M0 0h50v50H0z"/></clipPath></defs></svg>