<svg width="50" height="50" fill="none" xmlns="http://www.w3.org/2000/svg"><g clip-path="url(#clip0_206_230)"><path d="M48.438 20.215h-3a.103.103 0 01-.102-.075 20.757 20.757 0 00-2.518-6.075.102.102 0 01.012-.127l2.127-2.127c.295-.295.457-.688.457-1.105 0-.417-.162-.81-.457-1.105l-4.558-4.558a1.552 1.552 0 00-1.105-.457c-.417 0-.81.162-1.105.457L36.062 7.17a.102.102 0 01-.127.012 20.758 20.758 0 00-6.075-2.518c-.043-.01-.075-.053-.075-.102v-3c0-.861-.7-1.562-1.562-1.562h-6.446c-.861 0-1.562.7-1.562 1.562v3a.103.103 0 01-.075.102 20.759 20.759 0 00-6.075 2.518.102.102 0 01-.127-.012L11.81 5.043a1.552 1.552 0 00-1.105-.457c-.417 0-.81.162-1.105.457L5.043 9.601a1.552 1.552 0 00-.457 1.105c0 .417.162.81.457 1.105l2.127 2.127a.102.102 0 01.013.127 20.759 20.759 0 00-2.519 6.075c-.01.043-.053.075-.102.075h-3c-.861 0-1.562.7-1.562 1.562v6.446c0 .861.7 1.562 1.562 1.562h3c.049 0 .092.032.102.075a20.756 20.756 0 002.519 6.075.102.102 0 01-.013.127L5.043 38.19a1.552 1.552 0 00-.457 1.105c0 .418.162.81.457 1.105l4.558 4.558c.295.295.688.458 1.105.458.417 0 .81-.163 1.105-.458l2.127-2.127a.102.102 0 01.127-.012 20.761 20.761 0 006.075 2.518c.043.01.075.053.075.102v3c0 .861.7 1.562 1.562 1.562h6.446c.862 0 1.563-.7 1.563-1.562v-3c0-.049.031-.091.075-.102a20.761 20.761 0 006.075-2.518.102.102 0 01.126.012l2.127 2.127c.296.295.688.458 1.105.458.418 0 .81-.163 1.105-.458l3.47-3.47a.73.73 0 10-1.033-1.034l-3.47 3.47a.099.099 0 01-.072.03.098.098 0 01-.071-.03l-2.127-2.127a1.56 1.56 0 00-1.926-.223 19.301 19.301 0 01-5.648 2.341 1.558 1.558 0 00-1.198 1.524v3a.1.1 0 01-.101.1h-6.446a.1.1 0 01-.1-.1v-3c0-.73-.493-1.356-1.199-1.524a19.3 19.3 0 01-5.648-2.341 1.56 1.56 0 00-1.926.223l-2.127 2.127a.098.098 0 01-.07.03.098.098 0 01-.072-.03l-4.558-4.558a.099.099 0 01-.03-.07c0-.02.005-.048.03-.072l2.127-2.127a1.56 1.56 0 00.223-1.926 19.296 19.296 0 01-2.341-5.648 1.559 1.559 0 00-1.524-1.198h-3a.1.1 0 01-.1-.1v-6.447a.1.1 0 01.1-.1h3c.73 0 1.356-.493 1.524-1.199a19.296 19.296 0 012.342-5.648 1.56 1.56 0 00-.224-1.926l-2.127-2.127a.099.099 0 01-.03-.07.1.1 0 01.03-.072l4.558-4.558a.099.099 0 01.071-.03c.02 0 .047.006.071.03l2.127 2.127a1.56 1.56 0 001.927.224 19.296 19.296 0 015.647-2.342 1.559 1.559 0 001.198-1.524v-3a.1.1 0 01.101-.1h6.446a.1.1 0 01.1.1v3c0 .73.494 1.356 1.199 1.524a19.296 19.296 0 015.648 2.342 1.56 1.56 0 001.926-.224l2.127-2.127a.099.099 0 01.071-.03c.02 0 .047.006.071.03l4.558 4.558c.025.024.03.052.03.071a.098.098 0 01-.03.071l-2.127 2.127a1.56 1.56 0 00-.223 1.927 19.297 19.297 0 012.341 5.647 1.558 1.558 0 001.524 1.198h3a.1.1 0 01.1.101v6.446a.1.1 0 01-.1.1h-3a1.56 1.56 0 00-1.524 1.199 19.297 19.297 0 01-2.341 5.648 1.56 1.56 0 00.223 1.926l2.127 2.127c.025.024.03.052.03.071 0 .02-.005.047-.03.071l-1.087 1.088a.731.731 0 001.033 1.033l1.088-1.087c.295-.295.458-.688.458-1.105 0-.417-.163-.81-.458-1.105l-2.127-2.127a.102.102 0 01-.012-.127 20.757 20.757 0 002.518-6.075.103.103 0 01.102-.075h3c.861 0 1.562-.7 1.562-1.562v-6.446c0-.861-.7-1.562-1.562-1.562z" fill="url(#paint0_linear_206_230)"/><path d="M11.406 18.596c-.4-.06-.943.29-1.002.689C10.12 20 9.5 21 9.329 25c0 8.641 7.03 15.672 15.671 15.672 8.641 0 15.672-7.03 15.672-15.672 0-8.641-7.03-15.672-15.672-15.672a15.58 15.58 0 00-8.898 2.77 15.656 15.656 0 00-5.669 7.112l-.03.075a.73.73 0 00.412.948c.375.148.328.678.685.267l.292-.752a14.197 14.197 0 015.14-6.447A14.127 14.127 0 0125 10.79c7.835 0 14.21 6.374 14.21 14.209S32.835 39.21 25 39.21c-7.835 0-14.21-6.375-14.21-14.21 0-3.5.958-4.812 1.06-5.501.059-.4-.045-.845-.444-.903z" fill="url(#paint1_linear_206_230)"/><path d="M22.924 32.587l.09-.001a3.172 3.172 0 002.227-1.013l8.187-8.867a3.133 3.133 0 00.834-2.265 3.132 3.132 0 00-1.012-2.191 3.157 3.157 0 00-4.456.177l-5.998 6.497-1.715-1.657a3.157 3.157 0 00-4.459.076 3.157 3.157 0 00.076 4.459l4.035 3.899c.59.571 1.369.886 2.191.886zm-5.25-8.229a1.687 1.687 0 011.216-.515c.423 0 .848.158 1.175.475l2.253 2.176a.73.73 0 001.045-.03l6.505-7.045a1.694 1.694 0 012.933 1.08 1.68 1.68 0 01-.447 1.215l-8.187 8.867c-.307.333-.742.53-1.195.544a1.684 1.684 0 01-1.224-.475l-4.034-3.9a1.694 1.694 0 01-.04-2.392z" fill="url(#paint2_linear_206_230)"/></g><defs><linearGradient id="paint0_linear_206_230" x1="50" y1="-10.5" x2="60.46" y2="33.93" gradientUnits="userSpaceOnUse"><stop offset=".118" stop-color="#1D1E23"/><stop offset=".616" stop-color="#FE0A02"/><stop offset="1" stop-color="#F1C622"/></linearGradient><linearGradient id="paint1_linear_206_230" x1="40.672" y1="2.746" x2="47.228" y2="30.598" gradientUnits="userSpaceOnUse"><stop offset=".118" stop-color="#1D1E23"/><stop offset=".616" stop-color="#FE0A02"/><stop offset="1" stop-color="#F1C622"/></linearGradient><linearGradient id="paint2_linear_206_230" x1="34.264" y1="14.229" x2="36.909" y2="27.948" gradientUnits="userSpaceOnUse"><stop offset=".118" stop-color="#1D1E23"/><stop offset=".616" stop-color="#FE0A02"/><stop offset="1" stop-color="#F1C622"/></linearGradient><clipPath id="clip0_206_230"><path fill="#fff" d="M0 0h50v50H0z"/></clipPath></defs></svg>