<svg width="61" height="61" fill="none" xmlns="http://www.w3.org/2000/svg"><g clip-path="url(#clip0_119_59)"><path d="M1.424 28.874l12.662 7.975 5.73 14.307a2.13 2.13 0 003.218.94l7.168-5.097 12.83 8.083c.454.288.979.442 1.515.443a2.864 2.864 0 002.74-2.039L60.661 8.831a2.937 2.937 0 00-3.773-3.619l-54.924 19a2.605 2.605 0 00-.54 4.662zm19.364 19.283l-4.637-11.58L46.623 17.11a.086.086 0 01.047.084.083.083 0 01-.01.032L22.02 40.355c-.035.04-.067.083-.096.128-.02.026-.049.041-.067.07-.007.012-.007.026-.014.038a.999.999 0 00-.101.256.89.89 0 00-.03.101c0 .006-.004.012-.005.019l-.92 7.19zm1.807 1.78l.917-7.147 4.844 3.045-5.76 4.102zM2.232 26.605a.568.568 0 01.39-.485l54.92-19a.917.917 0 011.179 1.131L45.356 52.91a.837.837 0 01-1.247.468l-13.395-8.44-.028-.018-6.327-3.987 23.683-22.235a2.077 2.077 0 00-2.54-3.266l-30.6 19.548-12.396-7.814a.565.565 0 01-.274-.56z" fill="#AA0B0D"/></g><defs><clipPath id="clip0_119_59"><path fill="#fff" transform="translate(.213)" d="M0 0h60.575v60.575H0z"/></clipPath></defs></svg>