<svg width="76" height="75" fill="none" xmlns="http://www.w3.org/2000/svg"><path d="M38 48.498c-.693 0-1.35-.307-1.796-.838l-12.5-14.903a2.344 2.344 0 013.592-3.012l10.7 12.759 26.33-31.506a2.344 2.344 0 013.598 3.006L39.797 47.657a2.344 2.344 0 01-1.796.841H38z" fill="#FFC700"/><path d="M38 67.969C21.2 67.969 7.531 54.3 7.531 37.5S21.2 7.031 38 7.031c6.351 0 12.44 1.939 17.609 5.606a2.344 2.344 0 01-2.713 3.823A25.598 25.598 0 0038 11.72c-14.216 0-25.781 11.565-25.781 25.781S23.784 63.281 38 63.281 63.781 51.716 63.781 37.5c0-2.71-.418-5.38-1.244-7.931a2.344 2.344 0 114.46-1.443A30.417 30.417 0 0168.47 37.5C68.469 54.3 54.8 67.969 38 67.969z" fill="#FFC700"/></svg>